<mxfile host="app.diagrams.net" modified="2023-07-12T13:05:51.447Z" agent="Mozilla/5.0 (X11; Ubuntu; Linux x86_64; rv:109.0) Gecko/20100101 Firefox/115.0" etag="jq0mRw9L8Py39u_ShVfs" version="21.6.2">
  <diagram name="Page-1" id="F_kO-ccwQBgXkAWOY_e-">
    <mxGraphModel dx="899" dy="552" grid="1" gridSize="10" guides="1" tooltips="1" connect="1" arrows="1" fold="1" page="1" pageScale="1" pageWidth="850" pageHeight="1100" math="0" shadow="0">
      <root>
        <mxCell id="0" />
        <mxCell id="1" parent="0" />
        <mxCell id="fmfwr3C3cZf3HJOBRyC--15" value="" style="shape=table;startSize=0;container=1;collapsible=0;childLayout=tableLayout;fontSize=16;fillColor=none;strokeColor=#000000;strokeWidth=3;" vertex="1" parent="1">
          <mxGeometry x="70" y="60" width="300" height="160" as="geometry" />
        </mxCell>
        <mxCell id="fmfwr3C3cZf3HJOBRyC--16" value="" style="shape=tableRow;horizontal=0;startSize=0;swimlaneHead=0;swimlaneBody=0;strokeColor=#000000;top=0;left=0;bottom=0;right=0;collapsible=0;dropTarget=0;fillColor=none;points=[[0,0.5],[1,0.5]];portConstraint=eastwest;fontSize=16;strokeWidth=3;" vertex="1" parent="fmfwr3C3cZf3HJOBRyC--15">
          <mxGeometry width="300" height="40" as="geometry" />
        </mxCell>
        <mxCell id="fmfwr3C3cZf3HJOBRyC--17" value="" style="shape=partialRectangle;html=1;whiteSpace=wrap;connectable=0;strokeColor=#000000;overflow=hidden;fillColor=#006eaf;top=0;left=0;bottom=0;right=0;pointerEvents=1;fontSize=16;strokeWidth=3;opacity=60;" vertex="1" parent="fmfwr3C3cZf3HJOBRyC--16">
          <mxGeometry width="60" height="40" as="geometry">
            <mxRectangle width="60" height="40" as="alternateBounds" />
          </mxGeometry>
        </mxCell>
        <mxCell id="fmfwr3C3cZf3HJOBRyC--18" value="" style="shape=partialRectangle;html=1;whiteSpace=wrap;connectable=0;strokeColor=#000000;overflow=hidden;fillColor=#006eaf;top=0;left=0;bottom=0;right=0;pointerEvents=1;fontSize=16;strokeWidth=3;opacity=60;" vertex="1" parent="fmfwr3C3cZf3HJOBRyC--16">
          <mxGeometry x="60" width="60" height="40" as="geometry">
            <mxRectangle width="60" height="40" as="alternateBounds" />
          </mxGeometry>
        </mxCell>
        <mxCell id="fmfwr3C3cZf3HJOBRyC--19" value="" style="shape=partialRectangle;html=1;whiteSpace=wrap;connectable=0;strokeColor=#000000;overflow=hidden;fillColor=#006eaf;top=0;left=0;bottom=0;right=0;pointerEvents=1;fontSize=16;strokeWidth=3;opacity=60;" vertex="1" parent="fmfwr3C3cZf3HJOBRyC--16">
          <mxGeometry x="120" width="60" height="40" as="geometry">
            <mxRectangle width="60" height="40" as="alternateBounds" />
          </mxGeometry>
        </mxCell>
        <mxCell id="fmfwr3C3cZf3HJOBRyC--36" style="shape=partialRectangle;html=1;whiteSpace=wrap;connectable=0;strokeColor=#000000;overflow=hidden;fillColor=#006eaf;top=0;left=0;bottom=0;right=0;pointerEvents=1;fontSize=16;strokeWidth=3;opacity=60;" vertex="1" parent="fmfwr3C3cZf3HJOBRyC--16">
          <mxGeometry x="180" width="60" height="40" as="geometry">
            <mxRectangle width="60" height="40" as="alternateBounds" />
          </mxGeometry>
        </mxCell>
        <mxCell id="fmfwr3C3cZf3HJOBRyC--41" style="shape=partialRectangle;html=1;whiteSpace=wrap;connectable=0;strokeColor=#000000;overflow=hidden;fillColor=none;top=0;left=0;bottom=0;right=0;pointerEvents=1;fontSize=16;strokeWidth=3;" vertex="1" parent="fmfwr3C3cZf3HJOBRyC--16">
          <mxGeometry x="240" width="60" height="40" as="geometry">
            <mxRectangle width="60" height="40" as="alternateBounds" />
          </mxGeometry>
        </mxCell>
        <mxCell id="fmfwr3C3cZf3HJOBRyC--20" value="" style="shape=tableRow;horizontal=0;startSize=0;swimlaneHead=0;swimlaneBody=0;strokeColor=#000000;top=0;left=0;bottom=0;right=0;collapsible=0;dropTarget=0;fillColor=none;points=[[0,0.5],[1,0.5]];portConstraint=eastwest;fontSize=16;strokeWidth=3;" vertex="1" parent="fmfwr3C3cZf3HJOBRyC--15">
          <mxGeometry y="40" width="300" height="40" as="geometry" />
        </mxCell>
        <mxCell id="fmfwr3C3cZf3HJOBRyC--21" value="" style="shape=partialRectangle;html=1;whiteSpace=wrap;connectable=0;strokeColor=#000000;overflow=hidden;fillColor=#006eaf;top=0;left=0;bottom=0;right=0;pointerEvents=1;fontSize=16;strokeWidth=3;opacity=60;" vertex="1" parent="fmfwr3C3cZf3HJOBRyC--20">
          <mxGeometry width="60" height="40" as="geometry">
            <mxRectangle width="60" height="40" as="alternateBounds" />
          </mxGeometry>
        </mxCell>
        <mxCell id="fmfwr3C3cZf3HJOBRyC--22" value="" style="shape=partialRectangle;html=1;whiteSpace=wrap;connectable=0;strokeColor=#000000;overflow=hidden;fillColor=#006eaf;top=0;left=0;bottom=0;right=0;pointerEvents=1;fontSize=16;strokeWidth=3;opacity=60;" vertex="1" parent="fmfwr3C3cZf3HJOBRyC--20">
          <mxGeometry x="60" width="60" height="40" as="geometry">
            <mxRectangle width="60" height="40" as="alternateBounds" />
          </mxGeometry>
        </mxCell>
        <mxCell id="fmfwr3C3cZf3HJOBRyC--23" value="" style="shape=partialRectangle;html=1;whiteSpace=wrap;connectable=0;strokeColor=#000000;overflow=hidden;fillColor=#006eaf;top=0;left=0;bottom=0;right=0;pointerEvents=1;fontSize=16;strokeWidth=3;opacity=60;" vertex="1" parent="fmfwr3C3cZf3HJOBRyC--20">
          <mxGeometry x="120" width="60" height="40" as="geometry">
            <mxRectangle width="60" height="40" as="alternateBounds" />
          </mxGeometry>
        </mxCell>
        <mxCell id="fmfwr3C3cZf3HJOBRyC--37" style="shape=partialRectangle;html=1;whiteSpace=wrap;connectable=0;strokeColor=#000000;overflow=hidden;fillColor=none;top=0;left=0;bottom=0;right=0;pointerEvents=1;fontSize=16;strokeWidth=3;" vertex="1" parent="fmfwr3C3cZf3HJOBRyC--20">
          <mxGeometry x="180" width="60" height="40" as="geometry">
            <mxRectangle width="60" height="40" as="alternateBounds" />
          </mxGeometry>
        </mxCell>
        <mxCell id="fmfwr3C3cZf3HJOBRyC--42" style="shape=partialRectangle;html=1;whiteSpace=wrap;connectable=0;strokeColor=#000000;overflow=hidden;fillColor=none;top=0;left=0;bottom=0;right=0;pointerEvents=1;fontSize=16;strokeWidth=3;" vertex="1" parent="fmfwr3C3cZf3HJOBRyC--20">
          <mxGeometry x="240" width="60" height="40" as="geometry">
            <mxRectangle width="60" height="40" as="alternateBounds" />
          </mxGeometry>
        </mxCell>
        <mxCell id="fmfwr3C3cZf3HJOBRyC--24" value="" style="shape=tableRow;horizontal=0;startSize=0;swimlaneHead=0;swimlaneBody=0;strokeColor=#000000;top=0;left=0;bottom=0;right=0;collapsible=0;dropTarget=0;fillColor=none;points=[[0,0.5],[1,0.5]];portConstraint=eastwest;fontSize=16;strokeWidth=3;" vertex="1" parent="fmfwr3C3cZf3HJOBRyC--15">
          <mxGeometry y="80" width="300" height="40" as="geometry" />
        </mxCell>
        <mxCell id="fmfwr3C3cZf3HJOBRyC--25" value="" style="shape=partialRectangle;html=1;whiteSpace=wrap;connectable=0;strokeColor=#000000;overflow=hidden;fillColor=#006eaf;top=0;left=0;bottom=0;right=0;pointerEvents=1;fontSize=16;strokeWidth=3;opacity=60;" vertex="1" parent="fmfwr3C3cZf3HJOBRyC--24">
          <mxGeometry width="60" height="40" as="geometry">
            <mxRectangle width="60" height="40" as="alternateBounds" />
          </mxGeometry>
        </mxCell>
        <mxCell id="fmfwr3C3cZf3HJOBRyC--26" value="" style="shape=partialRectangle;html=1;whiteSpace=wrap;connectable=0;strokeColor=#000000;overflow=hidden;fillColor=#006eaf;top=0;left=0;bottom=0;right=0;pointerEvents=1;fontSize=16;strokeWidth=3;opacity=60;" vertex="1" parent="fmfwr3C3cZf3HJOBRyC--24">
          <mxGeometry x="60" width="60" height="40" as="geometry">
            <mxRectangle width="60" height="40" as="alternateBounds" />
          </mxGeometry>
        </mxCell>
        <mxCell id="fmfwr3C3cZf3HJOBRyC--27" value="&lt;table&gt;&lt;tbody&gt;&lt;tr&gt;&lt;td&gt;&lt;br&gt;&lt;/td&gt;&lt;td&gt;&lt;br&gt;&lt;/td&gt;&lt;td&gt;&lt;br&gt;&lt;/td&gt;&lt;td&gt;&lt;br&gt;&lt;/td&gt;&lt;td&gt;&lt;br&gt;&lt;/td&gt;&lt;td&gt;&lt;br&gt;&lt;/td&gt;&lt;td&gt;&lt;br&gt;&lt;/td&gt;&lt;td&gt;&lt;br&gt;&lt;/td&gt;&lt;td&gt;&lt;br&gt;&lt;/td&gt;&lt;td&gt;&lt;br&gt;&lt;/td&gt;&lt;/tr&gt;&lt;tr&gt;&lt;td&gt;&lt;br&gt;&lt;/td&gt;&lt;td&gt;&lt;br&gt;&lt;/td&gt;&lt;td&gt;&lt;br&gt;&lt;/td&gt;&lt;td&gt;&lt;br&gt;&lt;/td&gt;&lt;td&gt;&lt;br&gt;&lt;/td&gt;&lt;td&gt;&lt;br&gt;&lt;/td&gt;&lt;td&gt;&lt;br&gt;&lt;/td&gt;&lt;td&gt;&lt;br&gt;&lt;/td&gt;&lt;td&gt;&lt;br&gt;&lt;/td&gt;&lt;td&gt;&lt;br&gt;&lt;/td&gt;&lt;/tr&gt;&lt;tr&gt;&lt;td&gt;&lt;br&gt;&lt;/td&gt;&lt;td&gt;&lt;br&gt;&lt;/td&gt;&lt;td&gt;&lt;br&gt;&lt;/td&gt;&lt;td&gt;&lt;br&gt;&lt;/td&gt;&lt;td&gt;&lt;br&gt;&lt;/td&gt;&lt;td&gt;&lt;br&gt;&lt;/td&gt;&lt;td&gt;&lt;br&gt;&lt;/td&gt;&lt;td&gt;&lt;br&gt;&lt;/td&gt;&lt;td&gt;&lt;br&gt;&lt;/td&gt;&lt;td&gt;&lt;br&gt;&lt;/td&gt;&lt;/tr&gt;&lt;tr&gt;&lt;td&gt;&lt;br&gt;&lt;/td&gt;&lt;td&gt;&lt;br&gt;&lt;/td&gt;&lt;td&gt;&lt;br&gt;&lt;/td&gt;&lt;td&gt;&lt;br&gt;&lt;/td&gt;&lt;td&gt;&lt;br&gt;&lt;/td&gt;&lt;td&gt;&lt;br&gt;&lt;/td&gt;&lt;td&gt;&lt;br&gt;&lt;/td&gt;&lt;td&gt;&lt;br&gt;&lt;/td&gt;&lt;td&gt;&lt;br&gt;&lt;/td&gt;&lt;td&gt;&lt;br&gt;&lt;/td&gt;&lt;/tr&gt;&lt;/tbody&gt;&lt;/table&gt;" style="shape=partialRectangle;html=1;whiteSpace=wrap;connectable=0;strokeColor=#000000;overflow=hidden;fillColor=#006eaf;top=0;left=0;bottom=0;right=0;pointerEvents=1;fontSize=16;strokeWidth=3;opacity=60;" vertex="1" parent="fmfwr3C3cZf3HJOBRyC--24">
          <mxGeometry x="120" width="60" height="40" as="geometry">
            <mxRectangle width="60" height="40" as="alternateBounds" />
          </mxGeometry>
        </mxCell>
        <mxCell id="fmfwr3C3cZf3HJOBRyC--38" style="shape=partialRectangle;html=1;whiteSpace=wrap;connectable=0;strokeColor=#000000;overflow=hidden;fillColor=#006eaf;top=0;left=0;bottom=0;right=0;pointerEvents=1;fontSize=16;strokeWidth=3;opacity=60;" vertex="1" parent="fmfwr3C3cZf3HJOBRyC--24">
          <mxGeometry x="180" width="60" height="40" as="geometry">
            <mxRectangle width="60" height="40" as="alternateBounds" />
          </mxGeometry>
        </mxCell>
        <mxCell id="fmfwr3C3cZf3HJOBRyC--43" style="shape=partialRectangle;html=1;whiteSpace=wrap;connectable=0;strokeColor=#000000;overflow=hidden;fillColor=#006eaf;top=0;left=0;bottom=0;right=0;pointerEvents=1;fontSize=16;strokeWidth=3;opacity=60;" vertex="1" parent="fmfwr3C3cZf3HJOBRyC--24">
          <mxGeometry x="240" width="60" height="40" as="geometry">
            <mxRectangle width="60" height="40" as="alternateBounds" />
          </mxGeometry>
        </mxCell>
        <mxCell id="fmfwr3C3cZf3HJOBRyC--28" value="" style="shape=tableRow;horizontal=0;startSize=0;swimlaneHead=0;swimlaneBody=0;strokeColor=#000000;top=0;left=0;bottom=0;right=0;collapsible=0;dropTarget=0;fillColor=none;points=[[0,0.5],[1,0.5]];portConstraint=eastwest;fontSize=16;strokeWidth=3;" vertex="1" parent="fmfwr3C3cZf3HJOBRyC--15">
          <mxGeometry y="120" width="300" height="40" as="geometry" />
        </mxCell>
        <mxCell id="fmfwr3C3cZf3HJOBRyC--29" value="" style="shape=partialRectangle;html=1;whiteSpace=wrap;connectable=0;strokeColor=#000000;overflow=hidden;fillColor=#006eaf;top=0;left=0;bottom=0;right=0;pointerEvents=1;fontSize=16;strokeWidth=3;opacity=60;" vertex="1" parent="fmfwr3C3cZf3HJOBRyC--28">
          <mxGeometry width="60" height="40" as="geometry">
            <mxRectangle width="60" height="40" as="alternateBounds" />
          </mxGeometry>
        </mxCell>
        <mxCell id="fmfwr3C3cZf3HJOBRyC--30" value="" style="shape=partialRectangle;html=1;whiteSpace=wrap;connectable=0;strokeColor=#000000;overflow=hidden;fillColor=#006eaf;top=0;left=0;bottom=0;right=0;pointerEvents=1;fontSize=16;strokeWidth=3;opacity=60;" vertex="1" parent="fmfwr3C3cZf3HJOBRyC--28">
          <mxGeometry x="60" width="60" height="40" as="geometry">
            <mxRectangle width="60" height="40" as="alternateBounds" />
          </mxGeometry>
        </mxCell>
        <mxCell id="fmfwr3C3cZf3HJOBRyC--31" value="&lt;table&gt;&lt;tbody&gt;&lt;tr&gt;&lt;td&gt;&lt;br&gt;&lt;/td&gt;&lt;td&gt;&lt;br&gt;&lt;/td&gt;&lt;td&gt;&lt;br&gt;&lt;/td&gt;&lt;td&gt;&lt;br&gt;&lt;/td&gt;&lt;td&gt;&lt;br&gt;&lt;/td&gt;&lt;td&gt;&lt;br&gt;&lt;/td&gt;&lt;/tr&gt;&lt;tr&gt;&lt;td&gt;&lt;br&gt;&lt;/td&gt;&lt;td&gt;&lt;br&gt;&lt;/td&gt;&lt;td&gt;&lt;br&gt;&lt;/td&gt;&lt;td&gt;&lt;br&gt;&lt;/td&gt;&lt;td&gt;&lt;br&gt;&lt;/td&gt;&lt;td&gt;&lt;br&gt;&lt;/td&gt;&lt;/tr&gt;&lt;tr&gt;&lt;td&gt;&lt;br&gt;&lt;/td&gt;&lt;td&gt;&lt;br&gt;&lt;/td&gt;&lt;td&gt;&lt;br&gt;&lt;/td&gt;&lt;td&gt;&lt;br&gt;&lt;/td&gt;&lt;td&gt;&lt;br&gt;&lt;/td&gt;&lt;td&gt;&lt;br&gt;&lt;/td&gt;&lt;/tr&gt;&lt;tr&gt;&lt;td&gt;&lt;br&gt;&lt;/td&gt;&lt;td&gt;&lt;br&gt;&lt;/td&gt;&lt;td&gt;&lt;br&gt;&lt;/td&gt;&lt;td&gt;&lt;br&gt;&lt;/td&gt;&lt;td&gt;&lt;br&gt;&lt;/td&gt;&lt;td&gt;&lt;br&gt;&lt;/td&gt;&lt;/tr&gt;&lt;tr&gt;&lt;td&gt;&lt;br&gt;&lt;/td&gt;&lt;td&gt;&lt;br&gt;&lt;/td&gt;&lt;td&gt;&lt;br&gt;&lt;/td&gt;&lt;td&gt;&lt;br&gt;&lt;/td&gt;&lt;td&gt;&lt;br&gt;&lt;/td&gt;&lt;td&gt;&lt;br&gt;&lt;/td&gt;&lt;/tr&gt;&lt;/tbody&gt;&lt;/table&gt;" style="shape=partialRectangle;html=1;whiteSpace=wrap;connectable=0;strokeColor=#000000;overflow=hidden;fillColor=none;top=0;left=0;bottom=0;right=0;pointerEvents=1;fontSize=16;strokeWidth=3;" vertex="1" parent="fmfwr3C3cZf3HJOBRyC--28">
          <mxGeometry x="120" width="60" height="40" as="geometry">
            <mxRectangle width="60" height="40" as="alternateBounds" />
          </mxGeometry>
        </mxCell>
        <mxCell id="fmfwr3C3cZf3HJOBRyC--39" style="shape=partialRectangle;html=1;whiteSpace=wrap;connectable=0;strokeColor=#000000;overflow=hidden;fillColor=none;top=0;left=0;bottom=0;right=0;pointerEvents=1;fontSize=16;strokeWidth=3;" vertex="1" parent="fmfwr3C3cZf3HJOBRyC--28">
          <mxGeometry x="180" width="60" height="40" as="geometry">
            <mxRectangle width="60" height="40" as="alternateBounds" />
          </mxGeometry>
        </mxCell>
        <mxCell id="fmfwr3C3cZf3HJOBRyC--44" style="shape=partialRectangle;html=1;whiteSpace=wrap;connectable=0;strokeColor=#000000;overflow=hidden;fillColor=none;top=0;left=0;bottom=0;right=0;pointerEvents=1;fontSize=16;strokeWidth=3;" vertex="1" parent="fmfwr3C3cZf3HJOBRyC--28">
          <mxGeometry x="240" width="60" height="40" as="geometry">
            <mxRectangle width="60" height="40" as="alternateBounds" />
          </mxGeometry>
        </mxCell>
        <mxCell id="fmfwr3C3cZf3HJOBRyC--46" value="" style="shape=table;startSize=0;container=1;collapsible=0;childLayout=tableLayout;fontSize=16;fillColor=none;strokeColor=#000000;strokeWidth=2;" vertex="1" parent="1">
          <mxGeometry x="405" y="65" width="130" height="130" as="geometry" />
        </mxCell>
        <mxCell id="fmfwr3C3cZf3HJOBRyC--47" value="" style="shape=tableRow;horizontal=0;startSize=0;swimlaneHead=0;swimlaneBody=0;strokeColor=#000000;top=0;left=0;bottom=0;right=0;collapsible=0;dropTarget=0;fillColor=none;points=[[0,0.5],[1,0.5]];portConstraint=eastwest;fontSize=16;strokeWidth=3;" vertex="1" parent="fmfwr3C3cZf3HJOBRyC--46">
          <mxGeometry width="130" height="26" as="geometry" />
        </mxCell>
        <mxCell id="fmfwr3C3cZf3HJOBRyC--48" value="" style="shape=partialRectangle;html=1;whiteSpace=wrap;connectable=0;strokeColor=#000000;overflow=hidden;fillColor=#99CCFF;top=0;left=0;bottom=0;right=0;pointerEvents=1;fontSize=16;strokeWidth=3;opacity=60;" vertex="1" parent="fmfwr3C3cZf3HJOBRyC--47">
          <mxGeometry width="26" height="26" as="geometry">
            <mxRectangle width="26" height="26" as="alternateBounds" />
          </mxGeometry>
        </mxCell>
        <mxCell id="fmfwr3C3cZf3HJOBRyC--49" value="" style="shape=partialRectangle;html=1;whiteSpace=wrap;connectable=0;strokeColor=#000000;overflow=hidden;fillColor=#99CCFF;top=0;left=0;bottom=0;right=0;pointerEvents=1;fontSize=16;strokeWidth=3;opacity=60;" vertex="1" parent="fmfwr3C3cZf3HJOBRyC--47">
          <mxGeometry x="26" width="26" height="26" as="geometry">
            <mxRectangle width="26" height="26" as="alternateBounds" />
          </mxGeometry>
        </mxCell>
        <mxCell id="fmfwr3C3cZf3HJOBRyC--50" value="" style="shape=partialRectangle;html=1;whiteSpace=wrap;connectable=0;strokeColor=#000000;overflow=hidden;fillColor=#99CCFF;top=0;left=0;bottom=0;right=0;pointerEvents=1;fontSize=16;strokeWidth=3;opacity=60;" vertex="1" parent="fmfwr3C3cZf3HJOBRyC--47">
          <mxGeometry x="52" width="26" height="26" as="geometry">
            <mxRectangle width="26" height="26" as="alternateBounds" />
          </mxGeometry>
        </mxCell>
        <mxCell id="fmfwr3C3cZf3HJOBRyC--51" style="shape=partialRectangle;html=1;whiteSpace=wrap;connectable=0;strokeColor=#000000;overflow=hidden;fillColor=#99CCFF;top=0;left=0;bottom=0;right=0;pointerEvents=1;fontSize=16;strokeWidth=3;opacity=60;" vertex="1" parent="fmfwr3C3cZf3HJOBRyC--47">
          <mxGeometry x="78" width="26" height="26" as="geometry">
            <mxRectangle width="26" height="26" as="alternateBounds" />
          </mxGeometry>
        </mxCell>
        <mxCell id="fmfwr3C3cZf3HJOBRyC--52" style="shape=partialRectangle;html=1;whiteSpace=wrap;connectable=0;strokeColor=#000000;overflow=hidden;fillColor=none;top=0;left=0;bottom=0;right=0;pointerEvents=1;fontSize=16;strokeWidth=3;" vertex="1" parent="fmfwr3C3cZf3HJOBRyC--47">
          <mxGeometry x="104" width="26" height="26" as="geometry">
            <mxRectangle width="26" height="26" as="alternateBounds" />
          </mxGeometry>
        </mxCell>
        <mxCell id="fmfwr3C3cZf3HJOBRyC--53" value="" style="shape=tableRow;horizontal=0;startSize=0;swimlaneHead=0;swimlaneBody=0;strokeColor=#000000;top=0;left=0;bottom=0;right=0;collapsible=0;dropTarget=0;fillColor=none;points=[[0,0.5],[1,0.5]];portConstraint=eastwest;fontSize=16;strokeWidth=3;" vertex="1" parent="fmfwr3C3cZf3HJOBRyC--46">
          <mxGeometry y="26" width="130" height="26" as="geometry" />
        </mxCell>
        <mxCell id="fmfwr3C3cZf3HJOBRyC--54" value="" style="shape=partialRectangle;html=1;whiteSpace=wrap;connectable=0;strokeColor=#000000;overflow=hidden;fillColor=#99CCFF;top=0;left=0;bottom=0;right=0;pointerEvents=1;fontSize=16;strokeWidth=3;opacity=60;" vertex="1" parent="fmfwr3C3cZf3HJOBRyC--53">
          <mxGeometry width="26" height="26" as="geometry">
            <mxRectangle width="26" height="26" as="alternateBounds" />
          </mxGeometry>
        </mxCell>
        <mxCell id="fmfwr3C3cZf3HJOBRyC--55" value="" style="shape=partialRectangle;html=1;whiteSpace=wrap;connectable=0;strokeColor=#000000;overflow=hidden;fillColor=#99CCFF;top=0;left=0;bottom=0;right=0;pointerEvents=1;fontSize=16;strokeWidth=3;opacity=60;" vertex="1" parent="fmfwr3C3cZf3HJOBRyC--53">
          <mxGeometry x="26" width="26" height="26" as="geometry">
            <mxRectangle width="26" height="26" as="alternateBounds" />
          </mxGeometry>
        </mxCell>
        <mxCell id="fmfwr3C3cZf3HJOBRyC--56" value="" style="shape=partialRectangle;html=1;whiteSpace=wrap;connectable=0;strokeColor=#000000;overflow=hidden;fillColor=#99CCFF;top=0;left=0;bottom=0;right=0;pointerEvents=1;fontSize=16;strokeWidth=3;opacity=60;" vertex="1" parent="fmfwr3C3cZf3HJOBRyC--53">
          <mxGeometry x="52" width="26" height="26" as="geometry">
            <mxRectangle width="26" height="26" as="alternateBounds" />
          </mxGeometry>
        </mxCell>
        <mxCell id="fmfwr3C3cZf3HJOBRyC--57" style="shape=partialRectangle;html=1;whiteSpace=wrap;connectable=0;strokeColor=#000000;overflow=hidden;fillColor=#99CCFF;top=0;left=0;bottom=0;right=0;pointerEvents=1;fontSize=16;strokeWidth=3;opacity=60;" vertex="1" parent="fmfwr3C3cZf3HJOBRyC--53">
          <mxGeometry x="78" width="26" height="26" as="geometry">
            <mxRectangle width="26" height="26" as="alternateBounds" />
          </mxGeometry>
        </mxCell>
        <mxCell id="fmfwr3C3cZf3HJOBRyC--58" style="shape=partialRectangle;html=1;whiteSpace=wrap;connectable=0;strokeColor=#000000;overflow=hidden;fillColor=none;top=0;left=0;bottom=0;right=0;pointerEvents=1;fontSize=16;strokeWidth=3;" vertex="1" parent="fmfwr3C3cZf3HJOBRyC--53">
          <mxGeometry x="104" width="26" height="26" as="geometry">
            <mxRectangle width="26" height="26" as="alternateBounds" />
          </mxGeometry>
        </mxCell>
        <mxCell id="fmfwr3C3cZf3HJOBRyC--59" value="" style="shape=tableRow;horizontal=0;startSize=0;swimlaneHead=0;swimlaneBody=0;strokeColor=#000000;top=0;left=0;bottom=0;right=0;collapsible=0;dropTarget=0;fillColor=none;points=[[0,0.5],[1,0.5]];portConstraint=eastwest;fontSize=16;strokeWidth=3;" vertex="1" parent="fmfwr3C3cZf3HJOBRyC--46">
          <mxGeometry y="52" width="130" height="26" as="geometry" />
        </mxCell>
        <mxCell id="fmfwr3C3cZf3HJOBRyC--60" value="" style="shape=partialRectangle;html=1;whiteSpace=wrap;connectable=0;strokeColor=#000000;overflow=hidden;fillColor=#99CCFF;top=0;left=0;bottom=0;right=0;pointerEvents=1;fontSize=16;strokeWidth=3;opacity=60;" vertex="1" parent="fmfwr3C3cZf3HJOBRyC--59">
          <mxGeometry width="26" height="26" as="geometry">
            <mxRectangle width="26" height="26" as="alternateBounds" />
          </mxGeometry>
        </mxCell>
        <mxCell id="fmfwr3C3cZf3HJOBRyC--61" value="" style="shape=partialRectangle;html=1;whiteSpace=wrap;connectable=0;strokeColor=#000000;overflow=hidden;fillColor=#99CCFF;top=0;left=0;bottom=0;right=0;pointerEvents=1;fontSize=16;strokeWidth=3;opacity=60;" vertex="1" parent="fmfwr3C3cZf3HJOBRyC--59">
          <mxGeometry x="26" width="26" height="26" as="geometry">
            <mxRectangle width="26" height="26" as="alternateBounds" />
          </mxGeometry>
        </mxCell>
        <mxCell id="fmfwr3C3cZf3HJOBRyC--62" value="&lt;table&gt;&lt;tbody&gt;&lt;tr&gt;&lt;td&gt;&lt;br&gt;&lt;/td&gt;&lt;td&gt;&lt;br&gt;&lt;/td&gt;&lt;td&gt;&lt;br&gt;&lt;/td&gt;&lt;td&gt;&lt;br&gt;&lt;/td&gt;&lt;td&gt;&lt;br&gt;&lt;/td&gt;&lt;td&gt;&lt;br&gt;&lt;/td&gt;&lt;td&gt;&lt;br&gt;&lt;/td&gt;&lt;td&gt;&lt;br&gt;&lt;/td&gt;&lt;td&gt;&lt;br&gt;&lt;/td&gt;&lt;td&gt;&lt;br&gt;&lt;/td&gt;&lt;/tr&gt;&lt;tr&gt;&lt;td&gt;&lt;br&gt;&lt;/td&gt;&lt;td&gt;&lt;br&gt;&lt;/td&gt;&lt;td&gt;&lt;br&gt;&lt;/td&gt;&lt;td&gt;&lt;br&gt;&lt;/td&gt;&lt;td&gt;&lt;br&gt;&lt;/td&gt;&lt;td&gt;&lt;br&gt;&lt;/td&gt;&lt;td&gt;&lt;br&gt;&lt;/td&gt;&lt;td&gt;&lt;br&gt;&lt;/td&gt;&lt;td&gt;&lt;br&gt;&lt;/td&gt;&lt;td&gt;&lt;br&gt;&lt;/td&gt;&lt;/tr&gt;&lt;tr&gt;&lt;td&gt;&lt;br&gt;&lt;/td&gt;&lt;td&gt;&lt;br&gt;&lt;/td&gt;&lt;td&gt;&lt;br&gt;&lt;/td&gt;&lt;td&gt;&lt;br&gt;&lt;/td&gt;&lt;td&gt;&lt;br&gt;&lt;/td&gt;&lt;td&gt;&lt;br&gt;&lt;/td&gt;&lt;td&gt;&lt;br&gt;&lt;/td&gt;&lt;td&gt;&lt;br&gt;&lt;/td&gt;&lt;td&gt;&lt;br&gt;&lt;/td&gt;&lt;td&gt;&lt;br&gt;&lt;/td&gt;&lt;/tr&gt;&lt;tr&gt;&lt;td&gt;&lt;br&gt;&lt;/td&gt;&lt;td&gt;&lt;br&gt;&lt;/td&gt;&lt;td&gt;&lt;br&gt;&lt;/td&gt;&lt;td&gt;&lt;br&gt;&lt;/td&gt;&lt;td&gt;&lt;br&gt;&lt;/td&gt;&lt;td&gt;&lt;br&gt;&lt;/td&gt;&lt;td&gt;&lt;br&gt;&lt;/td&gt;&lt;td&gt;&lt;br&gt;&lt;/td&gt;&lt;td&gt;&lt;br&gt;&lt;/td&gt;&lt;td&gt;&lt;br&gt;&lt;/td&gt;&lt;/tr&gt;&lt;/tbody&gt;&lt;/table&gt;" style="shape=partialRectangle;html=1;whiteSpace=wrap;connectable=0;strokeColor=#000000;overflow=hidden;fillColor=#99CCFF;top=0;left=0;bottom=0;right=0;pointerEvents=1;fontSize=16;strokeWidth=3;opacity=60;" vertex="1" parent="fmfwr3C3cZf3HJOBRyC--59">
          <mxGeometry x="52" width="26" height="26" as="geometry">
            <mxRectangle width="26" height="26" as="alternateBounds" />
          </mxGeometry>
        </mxCell>
        <mxCell id="fmfwr3C3cZf3HJOBRyC--63" style="shape=partialRectangle;html=1;whiteSpace=wrap;connectable=0;strokeColor=#000000;overflow=hidden;fillColor=#99CCFF;top=0;left=0;bottom=0;right=0;pointerEvents=1;fontSize=16;strokeWidth=3;opacity=60;" vertex="1" parent="fmfwr3C3cZf3HJOBRyC--59">
          <mxGeometry x="78" width="26" height="26" as="geometry">
            <mxRectangle width="26" height="26" as="alternateBounds" />
          </mxGeometry>
        </mxCell>
        <mxCell id="fmfwr3C3cZf3HJOBRyC--64" style="shape=partialRectangle;html=1;whiteSpace=wrap;connectable=0;strokeColor=#000000;overflow=hidden;fillColor=none;top=0;left=0;bottom=0;right=0;pointerEvents=1;fontSize=16;strokeWidth=3;opacity=60;" vertex="1" parent="fmfwr3C3cZf3HJOBRyC--59">
          <mxGeometry x="104" width="26" height="26" as="geometry">
            <mxRectangle width="26" height="26" as="alternateBounds" />
          </mxGeometry>
        </mxCell>
        <mxCell id="fmfwr3C3cZf3HJOBRyC--65" value="" style="shape=tableRow;horizontal=0;startSize=0;swimlaneHead=0;swimlaneBody=0;strokeColor=#000000;top=0;left=0;bottom=0;right=0;collapsible=0;dropTarget=0;fillColor=none;points=[[0,0.5],[1,0.5]];portConstraint=eastwest;fontSize=16;strokeWidth=3;" vertex="1" parent="fmfwr3C3cZf3HJOBRyC--46">
          <mxGeometry y="78" width="130" height="26" as="geometry" />
        </mxCell>
        <mxCell id="fmfwr3C3cZf3HJOBRyC--66" value="" style="shape=partialRectangle;html=1;whiteSpace=wrap;connectable=0;strokeColor=#000000;overflow=hidden;fillColor=#99CCFF;top=0;left=0;bottom=0;right=0;pointerEvents=1;fontSize=16;strokeWidth=3;opacity=60;" vertex="1" parent="fmfwr3C3cZf3HJOBRyC--65">
          <mxGeometry width="26" height="26" as="geometry">
            <mxRectangle width="26" height="26" as="alternateBounds" />
          </mxGeometry>
        </mxCell>
        <mxCell id="fmfwr3C3cZf3HJOBRyC--67" value="" style="shape=partialRectangle;html=1;whiteSpace=wrap;connectable=0;strokeColor=#000000;overflow=hidden;fillColor=#99CCFF;top=0;left=0;bottom=0;right=0;pointerEvents=1;fontSize=16;strokeWidth=3;opacity=60;" vertex="1" parent="fmfwr3C3cZf3HJOBRyC--65">
          <mxGeometry x="26" width="26" height="26" as="geometry">
            <mxRectangle width="26" height="26" as="alternateBounds" />
          </mxGeometry>
        </mxCell>
        <mxCell id="fmfwr3C3cZf3HJOBRyC--68" value="&lt;table&gt;&lt;tbody&gt;&lt;tr&gt;&lt;td&gt;&lt;br&gt;&lt;/td&gt;&lt;td&gt;&lt;br&gt;&lt;/td&gt;&lt;td&gt;&lt;br&gt;&lt;/td&gt;&lt;td&gt;&lt;br&gt;&lt;/td&gt;&lt;td&gt;&lt;br&gt;&lt;/td&gt;&lt;td&gt;&lt;br&gt;&lt;/td&gt;&lt;/tr&gt;&lt;tr&gt;&lt;td&gt;&lt;br&gt;&lt;/td&gt;&lt;td&gt;&lt;br&gt;&lt;/td&gt;&lt;td&gt;&lt;br&gt;&lt;/td&gt;&lt;td&gt;&lt;br&gt;&lt;/td&gt;&lt;td&gt;&lt;br&gt;&lt;/td&gt;&lt;td&gt;&lt;br&gt;&lt;/td&gt;&lt;/tr&gt;&lt;tr&gt;&lt;td&gt;&lt;br&gt;&lt;/td&gt;&lt;td&gt;&lt;br&gt;&lt;/td&gt;&lt;td&gt;&lt;br&gt;&lt;/td&gt;&lt;td&gt;&lt;br&gt;&lt;/td&gt;&lt;td&gt;&lt;br&gt;&lt;/td&gt;&lt;td&gt;&lt;br&gt;&lt;/td&gt;&lt;/tr&gt;&lt;tr&gt;&lt;td&gt;&lt;br&gt;&lt;/td&gt;&lt;td&gt;&lt;br&gt;&lt;/td&gt;&lt;td&gt;&lt;br&gt;&lt;/td&gt;&lt;td&gt;&lt;br&gt;&lt;/td&gt;&lt;td&gt;&lt;br&gt;&lt;/td&gt;&lt;td&gt;&lt;br&gt;&lt;/td&gt;&lt;/tr&gt;&lt;tr&gt;&lt;td&gt;&lt;br&gt;&lt;/td&gt;&lt;td&gt;&lt;br&gt;&lt;/td&gt;&lt;td&gt;&lt;br&gt;&lt;/td&gt;&lt;td&gt;&lt;br&gt;&lt;/td&gt;&lt;td&gt;&lt;br&gt;&lt;/td&gt;&lt;td&gt;&lt;br&gt;&lt;/td&gt;&lt;/tr&gt;&lt;/tbody&gt;&lt;/table&gt;" style="shape=partialRectangle;html=1;whiteSpace=wrap;connectable=0;strokeColor=#000000;overflow=hidden;fillColor=#99CCFF;top=0;left=0;bottom=0;right=0;pointerEvents=1;fontSize=16;strokeWidth=3;opacity=60;" vertex="1" parent="fmfwr3C3cZf3HJOBRyC--65">
          <mxGeometry x="52" width="26" height="26" as="geometry">
            <mxRectangle width="26" height="26" as="alternateBounds" />
          </mxGeometry>
        </mxCell>
        <mxCell id="fmfwr3C3cZf3HJOBRyC--69" style="shape=partialRectangle;html=1;whiteSpace=wrap;connectable=0;strokeColor=#000000;overflow=hidden;fillColor=#99CCFF;top=0;left=0;bottom=0;right=0;pointerEvents=1;fontSize=16;strokeWidth=3;opacity=60;" vertex="1" parent="fmfwr3C3cZf3HJOBRyC--65">
          <mxGeometry x="78" width="26" height="26" as="geometry">
            <mxRectangle width="26" height="26" as="alternateBounds" />
          </mxGeometry>
        </mxCell>
        <mxCell id="fmfwr3C3cZf3HJOBRyC--70" style="shape=partialRectangle;html=1;whiteSpace=wrap;connectable=0;strokeColor=#000000;overflow=hidden;fillColor=none;top=0;left=0;bottom=0;right=0;pointerEvents=1;fontSize=16;strokeWidth=3;" vertex="1" parent="fmfwr3C3cZf3HJOBRyC--65">
          <mxGeometry x="104" width="26" height="26" as="geometry">
            <mxRectangle width="26" height="26" as="alternateBounds" />
          </mxGeometry>
        </mxCell>
        <mxCell id="fmfwr3C3cZf3HJOBRyC--71" style="shape=tableRow;horizontal=0;startSize=0;swimlaneHead=0;swimlaneBody=0;strokeColor=#000000;top=0;left=0;bottom=0;right=0;collapsible=0;dropTarget=0;fillColor=none;points=[[0,0.5],[1,0.5]];portConstraint=eastwest;fontSize=16;strokeWidth=3;" vertex="1" parent="fmfwr3C3cZf3HJOBRyC--46">
          <mxGeometry y="104" width="130" height="26" as="geometry" />
        </mxCell>
        <mxCell id="fmfwr3C3cZf3HJOBRyC--72" style="shape=partialRectangle;html=1;whiteSpace=wrap;connectable=0;strokeColor=#000000;overflow=hidden;fillColor=none;top=0;left=0;bottom=0;right=0;pointerEvents=1;fontSize=16;strokeWidth=3;opacity=60;" vertex="1" parent="fmfwr3C3cZf3HJOBRyC--71">
          <mxGeometry width="26" height="26" as="geometry">
            <mxRectangle width="26" height="26" as="alternateBounds" />
          </mxGeometry>
        </mxCell>
        <mxCell id="fmfwr3C3cZf3HJOBRyC--73" style="shape=partialRectangle;html=1;whiteSpace=wrap;connectable=0;strokeColor=#000000;overflow=hidden;fillColor=none;top=0;left=0;bottom=0;right=0;pointerEvents=1;fontSize=16;strokeWidth=3;opacity=60;" vertex="1" parent="fmfwr3C3cZf3HJOBRyC--71">
          <mxGeometry x="26" width="26" height="26" as="geometry">
            <mxRectangle width="26" height="26" as="alternateBounds" />
          </mxGeometry>
        </mxCell>
        <mxCell id="fmfwr3C3cZf3HJOBRyC--74" style="shape=partialRectangle;html=1;whiteSpace=wrap;connectable=0;strokeColor=#000000;overflow=hidden;fillColor=none;top=0;left=0;bottom=0;right=0;pointerEvents=1;fontSize=16;strokeWidth=3;" vertex="1" parent="fmfwr3C3cZf3HJOBRyC--71">
          <mxGeometry x="52" width="26" height="26" as="geometry">
            <mxRectangle width="26" height="26" as="alternateBounds" />
          </mxGeometry>
        </mxCell>
        <mxCell id="fmfwr3C3cZf3HJOBRyC--75" style="shape=partialRectangle;html=1;whiteSpace=wrap;connectable=0;strokeColor=#000000;overflow=hidden;fillColor=none;top=0;left=0;bottom=0;right=0;pointerEvents=1;fontSize=16;strokeWidth=3;" vertex="1" parent="fmfwr3C3cZf3HJOBRyC--71">
          <mxGeometry x="78" width="26" height="26" as="geometry">
            <mxRectangle width="26" height="26" as="alternateBounds" />
          </mxGeometry>
        </mxCell>
        <mxCell id="fmfwr3C3cZf3HJOBRyC--76" style="shape=partialRectangle;html=1;whiteSpace=wrap;connectable=0;strokeColor=#000000;overflow=hidden;fillColor=none;top=0;left=0;bottom=0;right=0;pointerEvents=1;fontSize=16;strokeWidth=3;" vertex="1" parent="fmfwr3C3cZf3HJOBRyC--71">
          <mxGeometry x="104" width="26" height="26" as="geometry">
            <mxRectangle width="26" height="26" as="alternateBounds" />
          </mxGeometry>
        </mxCell>
        <mxCell id="fmfwr3C3cZf3HJOBRyC--78" value="&lt;font style=&quot;font-size: 16px;&quot; face=&quot;Courier New&quot;&gt;T&lt;sub&gt;1&lt;/sub&gt;&lt;/font&gt;" style="text;html=1;strokeColor=none;fillColor=none;align=center;verticalAlign=middle;whiteSpace=wrap;rounded=0;" vertex="1" parent="1">
          <mxGeometry x="70" y="30" width="60" height="30" as="geometry" />
        </mxCell>
        <mxCell id="fmfwr3C3cZf3HJOBRyC--79" value="&lt;font style=&quot;font-size: 16px;&quot; face=&quot;Courier New&quot;&gt;T&lt;sub&gt;2&lt;/sub&gt;&lt;/font&gt;" style="text;html=1;strokeColor=none;fillColor=none;align=center;verticalAlign=middle;whiteSpace=wrap;rounded=0;" vertex="1" parent="1">
          <mxGeometry x="130" y="30" width="60" height="30" as="geometry" />
        </mxCell>
        <mxCell id="fmfwr3C3cZf3HJOBRyC--80" value="&lt;font style=&quot;font-size: 16px;&quot; face=&quot;Courier New&quot;&gt;T&lt;sub&gt;3&lt;/sub&gt;&lt;/font&gt;" style="text;html=1;strokeColor=none;fillColor=none;align=center;verticalAlign=middle;whiteSpace=wrap;rounded=0;" vertex="1" parent="1">
          <mxGeometry x="190" y="30" width="60" height="30" as="geometry" />
        </mxCell>
        <mxCell id="fmfwr3C3cZf3HJOBRyC--81" value="&lt;font style=&quot;font-size: 16px;&quot; face=&quot;Courier New&quot;&gt;T&lt;sub&gt;4&lt;/sub&gt;&lt;/font&gt;" style="text;html=1;strokeColor=none;fillColor=none;align=center;verticalAlign=middle;whiteSpace=wrap;rounded=0;" vertex="1" parent="1">
          <mxGeometry x="250" y="30" width="60" height="30" as="geometry" />
        </mxCell>
        <mxCell id="fmfwr3C3cZf3HJOBRyC--82" value="&lt;font style=&quot;font-size: 16px;&quot; face=&quot;Courier New&quot;&gt;T&lt;sub&gt;5&lt;/sub&gt;&lt;/font&gt;" style="text;html=1;strokeColor=none;fillColor=none;align=center;verticalAlign=middle;whiteSpace=wrap;rounded=0;" vertex="1" parent="1">
          <mxGeometry x="310" y="30" width="60" height="30" as="geometry" />
        </mxCell>
        <mxCell id="fmfwr3C3cZf3HJOBRyC--83" value="&lt;font style=&quot;font-size: 16px;&quot; face=&quot;Courier New&quot;&gt;B&lt;sub&gt;1&lt;/sub&gt;&lt;/font&gt;" style="text;html=1;strokeColor=none;fillColor=none;align=center;verticalAlign=middle;whiteSpace=wrap;rounded=0;" vertex="1" parent="1">
          <mxGeometry x="20" y="70" width="60" height="30" as="geometry" />
        </mxCell>
        <mxCell id="fmfwr3C3cZf3HJOBRyC--84" value="&lt;font style=&quot;font-size: 16px;&quot; face=&quot;Courier New&quot;&gt;B&lt;sub&gt;2&lt;/sub&gt;&lt;/font&gt;" style="text;html=1;strokeColor=none;fillColor=none;align=center;verticalAlign=middle;whiteSpace=wrap;rounded=0;" vertex="1" parent="1">
          <mxGeometry x="20" y="110" width="60" height="30" as="geometry" />
        </mxCell>
        <mxCell id="fmfwr3C3cZf3HJOBRyC--85" value="&lt;font style=&quot;font-size: 16px;&quot; face=&quot;Courier New&quot;&gt;B&lt;sub&gt;3&lt;/sub&gt;&lt;/font&gt;" style="text;html=1;strokeColor=none;fillColor=none;align=center;verticalAlign=middle;whiteSpace=wrap;rounded=0;" vertex="1" parent="1">
          <mxGeometry x="20" y="150" width="60" height="30" as="geometry" />
        </mxCell>
        <mxCell id="fmfwr3C3cZf3HJOBRyC--86" value="&lt;font style=&quot;font-size: 16px;&quot; face=&quot;Courier New&quot;&gt;B&lt;sub&gt;4&lt;/sub&gt;&lt;/font&gt;" style="text;html=1;strokeColor=none;fillColor=none;align=center;verticalAlign=middle;whiteSpace=wrap;rounded=0;" vertex="1" parent="1">
          <mxGeometry x="20" y="190" width="60" height="30" as="geometry" />
        </mxCell>
        <mxCell id="fmfwr3C3cZf3HJOBRyC--87" value="&lt;div&gt;&lt;font style=&quot;font-size: 16px;&quot; face=&quot;Courier New&quot;&gt;Binary mask for&lt;/font&gt;&lt;/div&gt;&lt;div&gt;&lt;font style=&quot;font-size: 16px;&quot; face=&quot;Courier New&quot;&gt;sequence B&lt;sub&gt;1&lt;/sub&gt;&lt;/font&gt;&lt;/div&gt;" style="text;html=1;strokeColor=none;fillColor=none;align=center;verticalAlign=middle;whiteSpace=wrap;rounded=0;" vertex="1" parent="1">
          <mxGeometry x="390" y="20" width="160" height="45" as="geometry" />
        </mxCell>
        <mxCell id="fmfwr3C3cZf3HJOBRyC--119" value="" style="shape=table;startSize=0;container=1;collapsible=0;childLayout=tableLayout;fontSize=16;fillColor=none;strokeColor=#000000;strokeWidth=2;" vertex="1" parent="1">
          <mxGeometry x="405" y="253" width="130" height="130" as="geometry" />
        </mxCell>
        <mxCell id="fmfwr3C3cZf3HJOBRyC--120" value="" style="shape=tableRow;horizontal=0;startSize=0;swimlaneHead=0;swimlaneBody=0;strokeColor=#000000;top=0;left=0;bottom=0;right=0;collapsible=0;dropTarget=0;fillColor=none;points=[[0,0.5],[1,0.5]];portConstraint=eastwest;fontSize=16;strokeWidth=3;" vertex="1" parent="fmfwr3C3cZf3HJOBRyC--119">
          <mxGeometry width="130" height="26" as="geometry" />
        </mxCell>
        <mxCell id="fmfwr3C3cZf3HJOBRyC--121" value="" style="shape=partialRectangle;html=1;whiteSpace=wrap;connectable=0;strokeColor=#000000;overflow=hidden;fillColor=#99CCFF;top=0;left=0;bottom=0;right=0;pointerEvents=1;fontSize=16;strokeWidth=3;opacity=60;" vertex="1" parent="fmfwr3C3cZf3HJOBRyC--120">
          <mxGeometry width="26" height="26" as="geometry">
            <mxRectangle width="26" height="26" as="alternateBounds" />
          </mxGeometry>
        </mxCell>
        <mxCell id="fmfwr3C3cZf3HJOBRyC--122" value="" style="shape=partialRectangle;html=1;whiteSpace=wrap;connectable=0;strokeColor=#000000;overflow=hidden;fillColor=#99CCFF;top=0;left=0;bottom=0;right=0;pointerEvents=1;fontSize=16;strokeWidth=3;opacity=60;" vertex="1" parent="fmfwr3C3cZf3HJOBRyC--120">
          <mxGeometry x="26" width="26" height="26" as="geometry">
            <mxRectangle width="26" height="26" as="alternateBounds" />
          </mxGeometry>
        </mxCell>
        <mxCell id="fmfwr3C3cZf3HJOBRyC--123" value="" style="shape=partialRectangle;html=1;whiteSpace=wrap;connectable=0;strokeColor=#000000;overflow=hidden;fillColor=#99CCFF;top=0;left=0;bottom=0;right=0;pointerEvents=1;fontSize=16;strokeWidth=3;opacity=60;" vertex="1" parent="fmfwr3C3cZf3HJOBRyC--120">
          <mxGeometry x="52" width="26" height="26" as="geometry">
            <mxRectangle width="26" height="26" as="alternateBounds" />
          </mxGeometry>
        </mxCell>
        <mxCell id="fmfwr3C3cZf3HJOBRyC--124" style="shape=partialRectangle;html=1;whiteSpace=wrap;connectable=0;strokeColor=#000000;overflow=hidden;fillColor=#99CCFF;top=0;left=0;bottom=0;right=0;pointerEvents=1;fontSize=16;strokeWidth=3;opacity=60;" vertex="1" parent="fmfwr3C3cZf3HJOBRyC--120">
          <mxGeometry x="78" width="26" height="26" as="geometry">
            <mxRectangle width="26" height="26" as="alternateBounds" />
          </mxGeometry>
        </mxCell>
        <mxCell id="fmfwr3C3cZf3HJOBRyC--125" style="shape=partialRectangle;html=1;whiteSpace=wrap;connectable=0;strokeColor=#000000;overflow=hidden;fillColor=#99CCFF;top=0;left=0;bottom=0;right=0;pointerEvents=1;fontSize=16;strokeWidth=3;opacity=60;" vertex="1" parent="fmfwr3C3cZf3HJOBRyC--120">
          <mxGeometry x="104" width="26" height="26" as="geometry">
            <mxRectangle width="26" height="26" as="alternateBounds" />
          </mxGeometry>
        </mxCell>
        <mxCell id="fmfwr3C3cZf3HJOBRyC--126" value="" style="shape=tableRow;horizontal=0;startSize=0;swimlaneHead=0;swimlaneBody=0;strokeColor=#000000;top=0;left=0;bottom=0;right=0;collapsible=0;dropTarget=0;fillColor=none;points=[[0,0.5],[1,0.5]];portConstraint=eastwest;fontSize=16;strokeWidth=3;" vertex="1" parent="fmfwr3C3cZf3HJOBRyC--119">
          <mxGeometry y="26" width="130" height="26" as="geometry" />
        </mxCell>
        <mxCell id="fmfwr3C3cZf3HJOBRyC--127" value="" style="shape=partialRectangle;html=1;whiteSpace=wrap;connectable=0;strokeColor=#000000;overflow=hidden;fillColor=#99CCFF;top=0;left=0;bottom=0;right=0;pointerEvents=1;fontSize=16;strokeWidth=3;opacity=60;" vertex="1" parent="fmfwr3C3cZf3HJOBRyC--126">
          <mxGeometry width="26" height="26" as="geometry">
            <mxRectangle width="26" height="26" as="alternateBounds" />
          </mxGeometry>
        </mxCell>
        <mxCell id="fmfwr3C3cZf3HJOBRyC--128" value="" style="shape=partialRectangle;html=1;whiteSpace=wrap;connectable=0;strokeColor=#000000;overflow=hidden;fillColor=#99CCFF;top=0;left=0;bottom=0;right=0;pointerEvents=1;fontSize=16;strokeWidth=3;opacity=60;" vertex="1" parent="fmfwr3C3cZf3HJOBRyC--126">
          <mxGeometry x="26" width="26" height="26" as="geometry">
            <mxRectangle width="26" height="26" as="alternateBounds" />
          </mxGeometry>
        </mxCell>
        <mxCell id="fmfwr3C3cZf3HJOBRyC--129" value="" style="shape=partialRectangle;html=1;whiteSpace=wrap;connectable=0;strokeColor=#000000;overflow=hidden;fillColor=#99CCFF;top=0;left=0;bottom=0;right=0;pointerEvents=1;fontSize=16;strokeWidth=3;opacity=60;" vertex="1" parent="fmfwr3C3cZf3HJOBRyC--126">
          <mxGeometry x="52" width="26" height="26" as="geometry">
            <mxRectangle width="26" height="26" as="alternateBounds" />
          </mxGeometry>
        </mxCell>
        <mxCell id="fmfwr3C3cZf3HJOBRyC--130" style="shape=partialRectangle;html=1;whiteSpace=wrap;connectable=0;strokeColor=#000000;overflow=hidden;fillColor=#99CCFF;top=0;left=0;bottom=0;right=0;pointerEvents=1;fontSize=16;strokeWidth=3;opacity=60;" vertex="1" parent="fmfwr3C3cZf3HJOBRyC--126">
          <mxGeometry x="78" width="26" height="26" as="geometry">
            <mxRectangle width="26" height="26" as="alternateBounds" />
          </mxGeometry>
        </mxCell>
        <mxCell id="fmfwr3C3cZf3HJOBRyC--131" style="shape=partialRectangle;html=1;whiteSpace=wrap;connectable=0;strokeColor=#000000;overflow=hidden;fillColor=#99CCFF;top=0;left=0;bottom=0;right=0;pointerEvents=1;fontSize=16;strokeWidth=3;opacity=60;" vertex="1" parent="fmfwr3C3cZf3HJOBRyC--126">
          <mxGeometry x="104" width="26" height="26" as="geometry">
            <mxRectangle width="26" height="26" as="alternateBounds" />
          </mxGeometry>
        </mxCell>
        <mxCell id="fmfwr3C3cZf3HJOBRyC--132" value="" style="shape=tableRow;horizontal=0;startSize=0;swimlaneHead=0;swimlaneBody=0;strokeColor=#000000;top=0;left=0;bottom=0;right=0;collapsible=0;dropTarget=0;fillColor=none;points=[[0,0.5],[1,0.5]];portConstraint=eastwest;fontSize=16;strokeWidth=3;" vertex="1" parent="fmfwr3C3cZf3HJOBRyC--119">
          <mxGeometry y="52" width="130" height="26" as="geometry" />
        </mxCell>
        <mxCell id="fmfwr3C3cZf3HJOBRyC--133" value="" style="shape=partialRectangle;html=1;whiteSpace=wrap;connectable=0;strokeColor=#000000;overflow=hidden;fillColor=#99CCFF;top=0;left=0;bottom=0;right=0;pointerEvents=1;fontSize=16;strokeWidth=3;opacity=60;" vertex="1" parent="fmfwr3C3cZf3HJOBRyC--132">
          <mxGeometry width="26" height="26" as="geometry">
            <mxRectangle width="26" height="26" as="alternateBounds" />
          </mxGeometry>
        </mxCell>
        <mxCell id="fmfwr3C3cZf3HJOBRyC--134" value="" style="shape=partialRectangle;html=1;whiteSpace=wrap;connectable=0;strokeColor=#000000;overflow=hidden;fillColor=#99CCFF;top=0;left=0;bottom=0;right=0;pointerEvents=1;fontSize=16;strokeWidth=3;opacity=60;" vertex="1" parent="fmfwr3C3cZf3HJOBRyC--132">
          <mxGeometry x="26" width="26" height="26" as="geometry">
            <mxRectangle width="26" height="26" as="alternateBounds" />
          </mxGeometry>
        </mxCell>
        <mxCell id="fmfwr3C3cZf3HJOBRyC--135" value="&lt;table&gt;&lt;tbody&gt;&lt;tr&gt;&lt;td&gt;&lt;br&gt;&lt;/td&gt;&lt;td&gt;&lt;br&gt;&lt;/td&gt;&lt;td&gt;&lt;br&gt;&lt;/td&gt;&lt;td&gt;&lt;br&gt;&lt;/td&gt;&lt;td&gt;&lt;br&gt;&lt;/td&gt;&lt;td&gt;&lt;br&gt;&lt;/td&gt;&lt;td&gt;&lt;br&gt;&lt;/td&gt;&lt;td&gt;&lt;br&gt;&lt;/td&gt;&lt;td&gt;&lt;br&gt;&lt;/td&gt;&lt;td&gt;&lt;br&gt;&lt;/td&gt;&lt;/tr&gt;&lt;tr&gt;&lt;td&gt;&lt;br&gt;&lt;/td&gt;&lt;td&gt;&lt;br&gt;&lt;/td&gt;&lt;td&gt;&lt;br&gt;&lt;/td&gt;&lt;td&gt;&lt;br&gt;&lt;/td&gt;&lt;td&gt;&lt;br&gt;&lt;/td&gt;&lt;td&gt;&lt;br&gt;&lt;/td&gt;&lt;td&gt;&lt;br&gt;&lt;/td&gt;&lt;td&gt;&lt;br&gt;&lt;/td&gt;&lt;td&gt;&lt;br&gt;&lt;/td&gt;&lt;td&gt;&lt;br&gt;&lt;/td&gt;&lt;/tr&gt;&lt;tr&gt;&lt;td&gt;&lt;br&gt;&lt;/td&gt;&lt;td&gt;&lt;br&gt;&lt;/td&gt;&lt;td&gt;&lt;br&gt;&lt;/td&gt;&lt;td&gt;&lt;br&gt;&lt;/td&gt;&lt;td&gt;&lt;br&gt;&lt;/td&gt;&lt;td&gt;&lt;br&gt;&lt;/td&gt;&lt;td&gt;&lt;br&gt;&lt;/td&gt;&lt;td&gt;&lt;br&gt;&lt;/td&gt;&lt;td&gt;&lt;br&gt;&lt;/td&gt;&lt;td&gt;&lt;br&gt;&lt;/td&gt;&lt;/tr&gt;&lt;tr&gt;&lt;td&gt;&lt;br&gt;&lt;/td&gt;&lt;td&gt;&lt;br&gt;&lt;/td&gt;&lt;td&gt;&lt;br&gt;&lt;/td&gt;&lt;td&gt;&lt;br&gt;&lt;/td&gt;&lt;td&gt;&lt;br&gt;&lt;/td&gt;&lt;td&gt;&lt;br&gt;&lt;/td&gt;&lt;td&gt;&lt;br&gt;&lt;/td&gt;&lt;td&gt;&lt;br&gt;&lt;/td&gt;&lt;td&gt;&lt;br&gt;&lt;/td&gt;&lt;td&gt;&lt;br&gt;&lt;/td&gt;&lt;/tr&gt;&lt;/tbody&gt;&lt;/table&gt;" style="shape=partialRectangle;html=1;whiteSpace=wrap;connectable=0;strokeColor=#000000;overflow=hidden;fillColor=#99CCFF;top=0;left=0;bottom=0;right=0;pointerEvents=1;fontSize=16;strokeWidth=3;opacity=60;" vertex="1" parent="fmfwr3C3cZf3HJOBRyC--132">
          <mxGeometry x="52" width="26" height="26" as="geometry">
            <mxRectangle width="26" height="26" as="alternateBounds" />
          </mxGeometry>
        </mxCell>
        <mxCell id="fmfwr3C3cZf3HJOBRyC--136" style="shape=partialRectangle;html=1;whiteSpace=wrap;connectable=0;strokeColor=#000000;overflow=hidden;fillColor=#99CCFF;top=0;left=0;bottom=0;right=0;pointerEvents=1;fontSize=16;strokeWidth=3;opacity=60;" vertex="1" parent="fmfwr3C3cZf3HJOBRyC--132">
          <mxGeometry x="78" width="26" height="26" as="geometry">
            <mxRectangle width="26" height="26" as="alternateBounds" />
          </mxGeometry>
        </mxCell>
        <mxCell id="fmfwr3C3cZf3HJOBRyC--137" style="shape=partialRectangle;html=1;whiteSpace=wrap;connectable=0;strokeColor=#000000;overflow=hidden;fillColor=#99CCFF;top=0;left=0;bottom=0;right=0;pointerEvents=1;fontSize=16;strokeWidth=3;opacity=60;" vertex="1" parent="fmfwr3C3cZf3HJOBRyC--132">
          <mxGeometry x="104" width="26" height="26" as="geometry">
            <mxRectangle width="26" height="26" as="alternateBounds" />
          </mxGeometry>
        </mxCell>
        <mxCell id="fmfwr3C3cZf3HJOBRyC--138" value="" style="shape=tableRow;horizontal=0;startSize=0;swimlaneHead=0;swimlaneBody=0;strokeColor=#000000;top=0;left=0;bottom=0;right=0;collapsible=0;dropTarget=0;fillColor=none;points=[[0,0.5],[1,0.5]];portConstraint=eastwest;fontSize=16;strokeWidth=3;" vertex="1" parent="fmfwr3C3cZf3HJOBRyC--119">
          <mxGeometry y="78" width="130" height="26" as="geometry" />
        </mxCell>
        <mxCell id="fmfwr3C3cZf3HJOBRyC--139" value="" style="shape=partialRectangle;html=1;whiteSpace=wrap;connectable=0;strokeColor=#000000;overflow=hidden;fillColor=#99CCFF;top=0;left=0;bottom=0;right=0;pointerEvents=1;fontSize=16;strokeWidth=3;opacity=60;" vertex="1" parent="fmfwr3C3cZf3HJOBRyC--138">
          <mxGeometry width="26" height="26" as="geometry">
            <mxRectangle width="26" height="26" as="alternateBounds" />
          </mxGeometry>
        </mxCell>
        <mxCell id="fmfwr3C3cZf3HJOBRyC--140" value="" style="shape=partialRectangle;html=1;whiteSpace=wrap;connectable=0;strokeColor=#000000;overflow=hidden;fillColor=#99CCFF;top=0;left=0;bottom=0;right=0;pointerEvents=1;fontSize=16;strokeWidth=3;opacity=60;" vertex="1" parent="fmfwr3C3cZf3HJOBRyC--138">
          <mxGeometry x="26" width="26" height="26" as="geometry">
            <mxRectangle width="26" height="26" as="alternateBounds" />
          </mxGeometry>
        </mxCell>
        <mxCell id="fmfwr3C3cZf3HJOBRyC--141" value="&lt;table&gt;&lt;tbody&gt;&lt;tr&gt;&lt;td&gt;&lt;br&gt;&lt;/td&gt;&lt;td&gt;&lt;br&gt;&lt;/td&gt;&lt;td&gt;&lt;br&gt;&lt;/td&gt;&lt;td&gt;&lt;br&gt;&lt;/td&gt;&lt;td&gt;&lt;br&gt;&lt;/td&gt;&lt;td&gt;&lt;br&gt;&lt;/td&gt;&lt;/tr&gt;&lt;tr&gt;&lt;td&gt;&lt;br&gt;&lt;/td&gt;&lt;td&gt;&lt;br&gt;&lt;/td&gt;&lt;td&gt;&lt;br&gt;&lt;/td&gt;&lt;td&gt;&lt;br&gt;&lt;/td&gt;&lt;td&gt;&lt;br&gt;&lt;/td&gt;&lt;td&gt;&lt;br&gt;&lt;/td&gt;&lt;/tr&gt;&lt;tr&gt;&lt;td&gt;&lt;br&gt;&lt;/td&gt;&lt;td&gt;&lt;br&gt;&lt;/td&gt;&lt;td&gt;&lt;br&gt;&lt;/td&gt;&lt;td&gt;&lt;br&gt;&lt;/td&gt;&lt;td&gt;&lt;br&gt;&lt;/td&gt;&lt;td&gt;&lt;br&gt;&lt;/td&gt;&lt;/tr&gt;&lt;tr&gt;&lt;td&gt;&lt;br&gt;&lt;/td&gt;&lt;td&gt;&lt;br&gt;&lt;/td&gt;&lt;td&gt;&lt;br&gt;&lt;/td&gt;&lt;td&gt;&lt;br&gt;&lt;/td&gt;&lt;td&gt;&lt;br&gt;&lt;/td&gt;&lt;td&gt;&lt;br&gt;&lt;/td&gt;&lt;/tr&gt;&lt;tr&gt;&lt;td&gt;&lt;br&gt;&lt;/td&gt;&lt;td&gt;&lt;br&gt;&lt;/td&gt;&lt;td&gt;&lt;br&gt;&lt;/td&gt;&lt;td&gt;&lt;br&gt;&lt;/td&gt;&lt;td&gt;&lt;br&gt;&lt;/td&gt;&lt;td&gt;&lt;br&gt;&lt;/td&gt;&lt;/tr&gt;&lt;/tbody&gt;&lt;/table&gt;" style="shape=partialRectangle;html=1;whiteSpace=wrap;connectable=0;strokeColor=#000000;overflow=hidden;fillColor=#99CCFF;top=0;left=0;bottom=0;right=0;pointerEvents=1;fontSize=16;strokeWidth=3;opacity=60;" vertex="1" parent="fmfwr3C3cZf3HJOBRyC--138">
          <mxGeometry x="52" width="26" height="26" as="geometry">
            <mxRectangle width="26" height="26" as="alternateBounds" />
          </mxGeometry>
        </mxCell>
        <mxCell id="fmfwr3C3cZf3HJOBRyC--142" style="shape=partialRectangle;html=1;whiteSpace=wrap;connectable=0;strokeColor=#000000;overflow=hidden;fillColor=#99CCFF;top=0;left=0;bottom=0;right=0;pointerEvents=1;fontSize=16;strokeWidth=3;opacity=60;" vertex="1" parent="fmfwr3C3cZf3HJOBRyC--138">
          <mxGeometry x="78" width="26" height="26" as="geometry">
            <mxRectangle width="26" height="26" as="alternateBounds" />
          </mxGeometry>
        </mxCell>
        <mxCell id="fmfwr3C3cZf3HJOBRyC--143" style="shape=partialRectangle;html=1;whiteSpace=wrap;connectable=0;strokeColor=#000000;overflow=hidden;fillColor=#99CCFF;top=0;left=0;bottom=0;right=0;pointerEvents=1;fontSize=16;strokeWidth=3;opacity=60;" vertex="1" parent="fmfwr3C3cZf3HJOBRyC--138">
          <mxGeometry x="104" width="26" height="26" as="geometry">
            <mxRectangle width="26" height="26" as="alternateBounds" />
          </mxGeometry>
        </mxCell>
        <mxCell id="fmfwr3C3cZf3HJOBRyC--144" style="shape=tableRow;horizontal=0;startSize=0;swimlaneHead=0;swimlaneBody=0;strokeColor=#000000;top=0;left=0;bottom=0;right=0;collapsible=0;dropTarget=0;fillColor=none;points=[[0,0.5],[1,0.5]];portConstraint=eastwest;fontSize=16;strokeWidth=3;" vertex="1" parent="fmfwr3C3cZf3HJOBRyC--119">
          <mxGeometry y="104" width="130" height="26" as="geometry" />
        </mxCell>
        <mxCell id="fmfwr3C3cZf3HJOBRyC--145" style="shape=partialRectangle;html=1;whiteSpace=wrap;connectable=0;strokeColor=#000000;overflow=hidden;fillColor=#99CCFF;top=0;left=0;bottom=0;right=0;pointerEvents=1;fontSize=16;strokeWidth=3;opacity=60;" vertex="1" parent="fmfwr3C3cZf3HJOBRyC--144">
          <mxGeometry width="26" height="26" as="geometry">
            <mxRectangle width="26" height="26" as="alternateBounds" />
          </mxGeometry>
        </mxCell>
        <mxCell id="fmfwr3C3cZf3HJOBRyC--146" style="shape=partialRectangle;html=1;whiteSpace=wrap;connectable=0;strokeColor=#000000;overflow=hidden;fillColor=#99CCFF;top=0;left=0;bottom=0;right=0;pointerEvents=1;fontSize=16;strokeWidth=3;opacity=60;" vertex="1" parent="fmfwr3C3cZf3HJOBRyC--144">
          <mxGeometry x="26" width="26" height="26" as="geometry">
            <mxRectangle width="26" height="26" as="alternateBounds" />
          </mxGeometry>
        </mxCell>
        <mxCell id="fmfwr3C3cZf3HJOBRyC--147" style="shape=partialRectangle;html=1;whiteSpace=wrap;connectable=0;strokeColor=#000000;overflow=hidden;fillColor=#99CCFF;top=0;left=0;bottom=0;right=0;pointerEvents=1;fontSize=16;strokeWidth=3;opacity=60;" vertex="1" parent="fmfwr3C3cZf3HJOBRyC--144">
          <mxGeometry x="52" width="26" height="26" as="geometry">
            <mxRectangle width="26" height="26" as="alternateBounds" />
          </mxGeometry>
        </mxCell>
        <mxCell id="fmfwr3C3cZf3HJOBRyC--148" style="shape=partialRectangle;html=1;whiteSpace=wrap;connectable=0;strokeColor=#000000;overflow=hidden;fillColor=#99CCFF;top=0;left=0;bottom=0;right=0;pointerEvents=1;fontSize=16;strokeWidth=3;opacity=60;" vertex="1" parent="fmfwr3C3cZf3HJOBRyC--144">
          <mxGeometry x="78" width="26" height="26" as="geometry">
            <mxRectangle width="26" height="26" as="alternateBounds" />
          </mxGeometry>
        </mxCell>
        <mxCell id="fmfwr3C3cZf3HJOBRyC--149" style="shape=partialRectangle;html=1;whiteSpace=wrap;connectable=0;strokeColor=#000000;overflow=hidden;fillColor=#99CCFF;top=0;left=0;bottom=0;right=0;pointerEvents=1;fontSize=16;strokeWidth=3;opacity=60;" vertex="1" parent="fmfwr3C3cZf3HJOBRyC--144">
          <mxGeometry x="104" width="26" height="26" as="geometry">
            <mxRectangle width="26" height="26" as="alternateBounds" />
          </mxGeometry>
        </mxCell>
        <mxCell id="fmfwr3C3cZf3HJOBRyC--150" value="&lt;div&gt;&lt;font style=&quot;font-size: 16px;&quot; face=&quot;Courier New&quot;&gt;Binary mask for&lt;/font&gt;&lt;/div&gt;&lt;div&gt;&lt;font style=&quot;font-size: 16px;&quot; face=&quot;Courier New&quot;&gt;sequence B&lt;sub&gt;3&lt;/sub&gt;&lt;/font&gt;&lt;/div&gt;" style="text;html=1;strokeColor=none;fillColor=none;align=center;verticalAlign=middle;whiteSpace=wrap;rounded=0;" vertex="1" parent="1">
          <mxGeometry x="390" y="208" width="160" height="45" as="geometry" />
        </mxCell>
        <mxCell id="fmfwr3C3cZf3HJOBRyC--151" value="" style="shape=table;startSize=0;container=1;collapsible=0;childLayout=tableLayout;fontSize=16;fillColor=none;strokeColor=#000000;strokeWidth=2;" vertex="1" parent="1">
          <mxGeometry x="570" y="65" width="130" height="130" as="geometry" />
        </mxCell>
        <mxCell id="fmfwr3C3cZf3HJOBRyC--152" value="" style="shape=tableRow;horizontal=0;startSize=0;swimlaneHead=0;swimlaneBody=0;strokeColor=#000000;top=0;left=0;bottom=0;right=0;collapsible=0;dropTarget=0;fillColor=none;points=[[0,0.5],[1,0.5]];portConstraint=eastwest;fontSize=16;strokeWidth=3;" vertex="1" parent="fmfwr3C3cZf3HJOBRyC--151">
          <mxGeometry width="130" height="26" as="geometry" />
        </mxCell>
        <mxCell id="fmfwr3C3cZf3HJOBRyC--153" value="" style="shape=partialRectangle;html=1;whiteSpace=wrap;connectable=0;strokeColor=#000000;overflow=hidden;fillColor=#99CCFF;top=0;left=0;bottom=0;right=0;pointerEvents=1;fontSize=16;strokeWidth=3;opacity=60;" vertex="1" parent="fmfwr3C3cZf3HJOBRyC--152">
          <mxGeometry width="26" height="26" as="geometry">
            <mxRectangle width="26" height="26" as="alternateBounds" />
          </mxGeometry>
        </mxCell>
        <mxCell id="fmfwr3C3cZf3HJOBRyC--154" value="" style="shape=partialRectangle;html=1;whiteSpace=wrap;connectable=0;strokeColor=#000000;overflow=hidden;fillColor=#99CCFF;top=0;left=0;bottom=0;right=0;pointerEvents=1;fontSize=16;strokeWidth=3;opacity=60;" vertex="1" parent="fmfwr3C3cZf3HJOBRyC--152">
          <mxGeometry x="26" width="26" height="26" as="geometry">
            <mxRectangle width="26" height="26" as="alternateBounds" />
          </mxGeometry>
        </mxCell>
        <mxCell id="fmfwr3C3cZf3HJOBRyC--155" value="" style="shape=partialRectangle;html=1;whiteSpace=wrap;connectable=0;strokeColor=#000000;overflow=hidden;fillColor=#99CCFF;top=0;left=0;bottom=0;right=0;pointerEvents=1;fontSize=16;strokeWidth=3;opacity=60;" vertex="1" parent="fmfwr3C3cZf3HJOBRyC--152">
          <mxGeometry x="52" width="26" height="26" as="geometry">
            <mxRectangle width="26" height="26" as="alternateBounds" />
          </mxGeometry>
        </mxCell>
        <mxCell id="fmfwr3C3cZf3HJOBRyC--156" style="shape=partialRectangle;html=1;whiteSpace=wrap;connectable=0;strokeColor=#000000;overflow=hidden;fillColor=none;top=0;left=0;bottom=0;right=0;pointerEvents=1;fontSize=16;strokeWidth=3;opacity=60;" vertex="1" parent="fmfwr3C3cZf3HJOBRyC--152">
          <mxGeometry x="78" width="26" height="26" as="geometry">
            <mxRectangle width="26" height="26" as="alternateBounds" />
          </mxGeometry>
        </mxCell>
        <mxCell id="fmfwr3C3cZf3HJOBRyC--157" style="shape=partialRectangle;html=1;whiteSpace=wrap;connectable=0;strokeColor=#000000;overflow=hidden;fillColor=none;top=0;left=0;bottom=0;right=0;pointerEvents=1;fontSize=16;strokeWidth=3;" vertex="1" parent="fmfwr3C3cZf3HJOBRyC--152">
          <mxGeometry x="104" width="26" height="26" as="geometry">
            <mxRectangle width="26" height="26" as="alternateBounds" />
          </mxGeometry>
        </mxCell>
        <mxCell id="fmfwr3C3cZf3HJOBRyC--158" value="" style="shape=tableRow;horizontal=0;startSize=0;swimlaneHead=0;swimlaneBody=0;strokeColor=#000000;top=0;left=0;bottom=0;right=0;collapsible=0;dropTarget=0;fillColor=none;points=[[0,0.5],[1,0.5]];portConstraint=eastwest;fontSize=16;strokeWidth=3;" vertex="1" parent="fmfwr3C3cZf3HJOBRyC--151">
          <mxGeometry y="26" width="130" height="26" as="geometry" />
        </mxCell>
        <mxCell id="fmfwr3C3cZf3HJOBRyC--159" value="" style="shape=partialRectangle;html=1;whiteSpace=wrap;connectable=0;strokeColor=#000000;overflow=hidden;fillColor=#99CCFF;top=0;left=0;bottom=0;right=0;pointerEvents=1;fontSize=16;strokeWidth=3;opacity=60;" vertex="1" parent="fmfwr3C3cZf3HJOBRyC--158">
          <mxGeometry width="26" height="26" as="geometry">
            <mxRectangle width="26" height="26" as="alternateBounds" />
          </mxGeometry>
        </mxCell>
        <mxCell id="fmfwr3C3cZf3HJOBRyC--160" value="" style="shape=partialRectangle;html=1;whiteSpace=wrap;connectable=0;strokeColor=#000000;overflow=hidden;fillColor=#99CCFF;top=0;left=0;bottom=0;right=0;pointerEvents=1;fontSize=16;strokeWidth=3;opacity=60;" vertex="1" parent="fmfwr3C3cZf3HJOBRyC--158">
          <mxGeometry x="26" width="26" height="26" as="geometry">
            <mxRectangle width="26" height="26" as="alternateBounds" />
          </mxGeometry>
        </mxCell>
        <mxCell id="fmfwr3C3cZf3HJOBRyC--161" value="" style="shape=partialRectangle;html=1;whiteSpace=wrap;connectable=0;strokeColor=#000000;overflow=hidden;fillColor=#99CCFF;top=0;left=0;bottom=0;right=0;pointerEvents=1;fontSize=16;strokeWidth=3;opacity=60;" vertex="1" parent="fmfwr3C3cZf3HJOBRyC--158">
          <mxGeometry x="52" width="26" height="26" as="geometry">
            <mxRectangle width="26" height="26" as="alternateBounds" />
          </mxGeometry>
        </mxCell>
        <mxCell id="fmfwr3C3cZf3HJOBRyC--162" style="shape=partialRectangle;html=1;whiteSpace=wrap;connectable=0;strokeColor=#000000;overflow=hidden;fillColor=none;top=0;left=0;bottom=0;right=0;pointerEvents=1;fontSize=16;strokeWidth=3;opacity=60;" vertex="1" parent="fmfwr3C3cZf3HJOBRyC--158">
          <mxGeometry x="78" width="26" height="26" as="geometry">
            <mxRectangle width="26" height="26" as="alternateBounds" />
          </mxGeometry>
        </mxCell>
        <mxCell id="fmfwr3C3cZf3HJOBRyC--163" style="shape=partialRectangle;html=1;whiteSpace=wrap;connectable=0;strokeColor=#000000;overflow=hidden;fillColor=none;top=0;left=0;bottom=0;right=0;pointerEvents=1;fontSize=16;strokeWidth=3;" vertex="1" parent="fmfwr3C3cZf3HJOBRyC--158">
          <mxGeometry x="104" width="26" height="26" as="geometry">
            <mxRectangle width="26" height="26" as="alternateBounds" />
          </mxGeometry>
        </mxCell>
        <mxCell id="fmfwr3C3cZf3HJOBRyC--164" value="" style="shape=tableRow;horizontal=0;startSize=0;swimlaneHead=0;swimlaneBody=0;strokeColor=#000000;top=0;left=0;bottom=0;right=0;collapsible=0;dropTarget=0;fillColor=none;points=[[0,0.5],[1,0.5]];portConstraint=eastwest;fontSize=16;strokeWidth=3;" vertex="1" parent="fmfwr3C3cZf3HJOBRyC--151">
          <mxGeometry y="52" width="130" height="26" as="geometry" />
        </mxCell>
        <mxCell id="fmfwr3C3cZf3HJOBRyC--165" value="" style="shape=partialRectangle;html=1;whiteSpace=wrap;connectable=0;strokeColor=#000000;overflow=hidden;fillColor=#99CCFF;top=0;left=0;bottom=0;right=0;pointerEvents=1;fontSize=16;strokeWidth=3;opacity=60;" vertex="1" parent="fmfwr3C3cZf3HJOBRyC--164">
          <mxGeometry width="26" height="26" as="geometry">
            <mxRectangle width="26" height="26" as="alternateBounds" />
          </mxGeometry>
        </mxCell>
        <mxCell id="fmfwr3C3cZf3HJOBRyC--166" value="" style="shape=partialRectangle;html=1;whiteSpace=wrap;connectable=0;strokeColor=#000000;overflow=hidden;fillColor=#99CCFF;top=0;left=0;bottom=0;right=0;pointerEvents=1;fontSize=16;strokeWidth=3;opacity=60;" vertex="1" parent="fmfwr3C3cZf3HJOBRyC--164">
          <mxGeometry x="26" width="26" height="26" as="geometry">
            <mxRectangle width="26" height="26" as="alternateBounds" />
          </mxGeometry>
        </mxCell>
        <mxCell id="fmfwr3C3cZf3HJOBRyC--167" value="&lt;table&gt;&lt;tbody&gt;&lt;tr&gt;&lt;td&gt;&lt;br&gt;&lt;/td&gt;&lt;td&gt;&lt;br&gt;&lt;/td&gt;&lt;td&gt;&lt;br&gt;&lt;/td&gt;&lt;td&gt;&lt;br&gt;&lt;/td&gt;&lt;td&gt;&lt;br&gt;&lt;/td&gt;&lt;td&gt;&lt;br&gt;&lt;/td&gt;&lt;td&gt;&lt;br&gt;&lt;/td&gt;&lt;td&gt;&lt;br&gt;&lt;/td&gt;&lt;td&gt;&lt;br&gt;&lt;/td&gt;&lt;td&gt;&lt;br&gt;&lt;/td&gt;&lt;/tr&gt;&lt;tr&gt;&lt;td&gt;&lt;br&gt;&lt;/td&gt;&lt;td&gt;&lt;br&gt;&lt;/td&gt;&lt;td&gt;&lt;br&gt;&lt;/td&gt;&lt;td&gt;&lt;br&gt;&lt;/td&gt;&lt;td&gt;&lt;br&gt;&lt;/td&gt;&lt;td&gt;&lt;br&gt;&lt;/td&gt;&lt;td&gt;&lt;br&gt;&lt;/td&gt;&lt;td&gt;&lt;br&gt;&lt;/td&gt;&lt;td&gt;&lt;br&gt;&lt;/td&gt;&lt;td&gt;&lt;br&gt;&lt;/td&gt;&lt;/tr&gt;&lt;tr&gt;&lt;td&gt;&lt;br&gt;&lt;/td&gt;&lt;td&gt;&lt;br&gt;&lt;/td&gt;&lt;td&gt;&lt;br&gt;&lt;/td&gt;&lt;td&gt;&lt;br&gt;&lt;/td&gt;&lt;td&gt;&lt;br&gt;&lt;/td&gt;&lt;td&gt;&lt;br&gt;&lt;/td&gt;&lt;td&gt;&lt;br&gt;&lt;/td&gt;&lt;td&gt;&lt;br&gt;&lt;/td&gt;&lt;td&gt;&lt;br&gt;&lt;/td&gt;&lt;td&gt;&lt;br&gt;&lt;/td&gt;&lt;/tr&gt;&lt;tr&gt;&lt;td&gt;&lt;br&gt;&lt;/td&gt;&lt;td&gt;&lt;br&gt;&lt;/td&gt;&lt;td&gt;&lt;br&gt;&lt;/td&gt;&lt;td&gt;&lt;br&gt;&lt;/td&gt;&lt;td&gt;&lt;br&gt;&lt;/td&gt;&lt;td&gt;&lt;br&gt;&lt;/td&gt;&lt;td&gt;&lt;br&gt;&lt;/td&gt;&lt;td&gt;&lt;br&gt;&lt;/td&gt;&lt;td&gt;&lt;br&gt;&lt;/td&gt;&lt;td&gt;&lt;br&gt;&lt;/td&gt;&lt;/tr&gt;&lt;/tbody&gt;&lt;/table&gt;" style="shape=partialRectangle;html=1;whiteSpace=wrap;connectable=0;strokeColor=#000000;overflow=hidden;fillColor=#99CCFF;top=0;left=0;bottom=0;right=0;pointerEvents=1;fontSize=16;strokeWidth=3;opacity=60;" vertex="1" parent="fmfwr3C3cZf3HJOBRyC--164">
          <mxGeometry x="52" width="26" height="26" as="geometry">
            <mxRectangle width="26" height="26" as="alternateBounds" />
          </mxGeometry>
        </mxCell>
        <mxCell id="fmfwr3C3cZf3HJOBRyC--168" style="shape=partialRectangle;html=1;whiteSpace=wrap;connectable=0;strokeColor=#000000;overflow=hidden;fillColor=none;top=0;left=0;bottom=0;right=0;pointerEvents=1;fontSize=16;strokeWidth=3;opacity=60;" vertex="1" parent="fmfwr3C3cZf3HJOBRyC--164">
          <mxGeometry x="78" width="26" height="26" as="geometry">
            <mxRectangle width="26" height="26" as="alternateBounds" />
          </mxGeometry>
        </mxCell>
        <mxCell id="fmfwr3C3cZf3HJOBRyC--169" style="shape=partialRectangle;html=1;whiteSpace=wrap;connectable=0;strokeColor=#000000;overflow=hidden;fillColor=none;top=0;left=0;bottom=0;right=0;pointerEvents=1;fontSize=16;strokeWidth=3;opacity=60;" vertex="1" parent="fmfwr3C3cZf3HJOBRyC--164">
          <mxGeometry x="104" width="26" height="26" as="geometry">
            <mxRectangle width="26" height="26" as="alternateBounds" />
          </mxGeometry>
        </mxCell>
        <mxCell id="fmfwr3C3cZf3HJOBRyC--170" value="" style="shape=tableRow;horizontal=0;startSize=0;swimlaneHead=0;swimlaneBody=0;strokeColor=#000000;top=0;left=0;bottom=0;right=0;collapsible=0;dropTarget=0;fillColor=none;points=[[0,0.5],[1,0.5]];portConstraint=eastwest;fontSize=16;strokeWidth=3;" vertex="1" parent="fmfwr3C3cZf3HJOBRyC--151">
          <mxGeometry y="78" width="130" height="26" as="geometry" />
        </mxCell>
        <mxCell id="fmfwr3C3cZf3HJOBRyC--171" value="" style="shape=partialRectangle;html=1;whiteSpace=wrap;connectable=0;strokeColor=#000000;overflow=hidden;fillColor=none;top=0;left=0;bottom=0;right=0;pointerEvents=1;fontSize=16;strokeWidth=3;opacity=60;" vertex="1" parent="fmfwr3C3cZf3HJOBRyC--170">
          <mxGeometry width="26" height="26" as="geometry">
            <mxRectangle width="26" height="26" as="alternateBounds" />
          </mxGeometry>
        </mxCell>
        <mxCell id="fmfwr3C3cZf3HJOBRyC--172" value="" style="shape=partialRectangle;html=1;whiteSpace=wrap;connectable=0;strokeColor=#000000;overflow=hidden;fillColor=none;top=0;left=0;bottom=0;right=0;pointerEvents=1;fontSize=16;strokeWidth=3;opacity=60;" vertex="1" parent="fmfwr3C3cZf3HJOBRyC--170">
          <mxGeometry x="26" width="26" height="26" as="geometry">
            <mxRectangle width="26" height="26" as="alternateBounds" />
          </mxGeometry>
        </mxCell>
        <mxCell id="fmfwr3C3cZf3HJOBRyC--173" value="&lt;table&gt;&lt;tbody&gt;&lt;tr&gt;&lt;td&gt;&lt;br&gt;&lt;/td&gt;&lt;td&gt;&lt;br&gt;&lt;/td&gt;&lt;td&gt;&lt;br&gt;&lt;/td&gt;&lt;td&gt;&lt;br&gt;&lt;/td&gt;&lt;td&gt;&lt;br&gt;&lt;/td&gt;&lt;td&gt;&lt;br&gt;&lt;/td&gt;&lt;/tr&gt;&lt;tr&gt;&lt;td&gt;&lt;br&gt;&lt;/td&gt;&lt;td&gt;&lt;br&gt;&lt;/td&gt;&lt;td&gt;&lt;br&gt;&lt;/td&gt;&lt;td&gt;&lt;br&gt;&lt;/td&gt;&lt;td&gt;&lt;br&gt;&lt;/td&gt;&lt;td&gt;&lt;br&gt;&lt;/td&gt;&lt;/tr&gt;&lt;tr&gt;&lt;td&gt;&lt;br&gt;&lt;/td&gt;&lt;td&gt;&lt;br&gt;&lt;/td&gt;&lt;td&gt;&lt;br&gt;&lt;/td&gt;&lt;td&gt;&lt;br&gt;&lt;/td&gt;&lt;td&gt;&lt;br&gt;&lt;/td&gt;&lt;td&gt;&lt;br&gt;&lt;/td&gt;&lt;/tr&gt;&lt;tr&gt;&lt;td&gt;&lt;br&gt;&lt;/td&gt;&lt;td&gt;&lt;br&gt;&lt;/td&gt;&lt;td&gt;&lt;br&gt;&lt;/td&gt;&lt;td&gt;&lt;br&gt;&lt;/td&gt;&lt;td&gt;&lt;br&gt;&lt;/td&gt;&lt;td&gt;&lt;br&gt;&lt;/td&gt;&lt;/tr&gt;&lt;tr&gt;&lt;td&gt;&lt;br&gt;&lt;/td&gt;&lt;td&gt;&lt;br&gt;&lt;/td&gt;&lt;td&gt;&lt;br&gt;&lt;/td&gt;&lt;td&gt;&lt;br&gt;&lt;/td&gt;&lt;td&gt;&lt;br&gt;&lt;/td&gt;&lt;td&gt;&lt;br&gt;&lt;/td&gt;&lt;/tr&gt;&lt;/tbody&gt;&lt;/table&gt;" style="shape=partialRectangle;html=1;whiteSpace=wrap;connectable=0;strokeColor=#000000;overflow=hidden;fillColor=none;top=0;left=0;bottom=0;right=0;pointerEvents=1;fontSize=16;strokeWidth=3;opacity=60;" vertex="1" parent="fmfwr3C3cZf3HJOBRyC--170">
          <mxGeometry x="52" width="26" height="26" as="geometry">
            <mxRectangle width="26" height="26" as="alternateBounds" />
          </mxGeometry>
        </mxCell>
        <mxCell id="fmfwr3C3cZf3HJOBRyC--174" style="shape=partialRectangle;html=1;whiteSpace=wrap;connectable=0;strokeColor=#000000;overflow=hidden;fillColor=none;top=0;left=0;bottom=0;right=0;pointerEvents=1;fontSize=16;strokeWidth=3;opacity=60;" vertex="1" parent="fmfwr3C3cZf3HJOBRyC--170">
          <mxGeometry x="78" width="26" height="26" as="geometry">
            <mxRectangle width="26" height="26" as="alternateBounds" />
          </mxGeometry>
        </mxCell>
        <mxCell id="fmfwr3C3cZf3HJOBRyC--175" style="shape=partialRectangle;html=1;whiteSpace=wrap;connectable=0;strokeColor=#000000;overflow=hidden;fillColor=none;top=0;left=0;bottom=0;right=0;pointerEvents=1;fontSize=16;strokeWidth=3;" vertex="1" parent="fmfwr3C3cZf3HJOBRyC--170">
          <mxGeometry x="104" width="26" height="26" as="geometry">
            <mxRectangle width="26" height="26" as="alternateBounds" />
          </mxGeometry>
        </mxCell>
        <mxCell id="fmfwr3C3cZf3HJOBRyC--176" style="shape=tableRow;horizontal=0;startSize=0;swimlaneHead=0;swimlaneBody=0;strokeColor=#000000;top=0;left=0;bottom=0;right=0;collapsible=0;dropTarget=0;fillColor=none;points=[[0,0.5],[1,0.5]];portConstraint=eastwest;fontSize=16;strokeWidth=3;" vertex="1" parent="fmfwr3C3cZf3HJOBRyC--151">
          <mxGeometry y="104" width="130" height="26" as="geometry" />
        </mxCell>
        <mxCell id="fmfwr3C3cZf3HJOBRyC--177" style="shape=partialRectangle;html=1;whiteSpace=wrap;connectable=0;strokeColor=#000000;overflow=hidden;fillColor=none;top=0;left=0;bottom=0;right=0;pointerEvents=1;fontSize=16;strokeWidth=3;opacity=60;" vertex="1" parent="fmfwr3C3cZf3HJOBRyC--176">
          <mxGeometry width="26" height="26" as="geometry">
            <mxRectangle width="26" height="26" as="alternateBounds" />
          </mxGeometry>
        </mxCell>
        <mxCell id="fmfwr3C3cZf3HJOBRyC--178" style="shape=partialRectangle;html=1;whiteSpace=wrap;connectable=0;strokeColor=#000000;overflow=hidden;fillColor=none;top=0;left=0;bottom=0;right=0;pointerEvents=1;fontSize=16;strokeWidth=3;opacity=60;" vertex="1" parent="fmfwr3C3cZf3HJOBRyC--176">
          <mxGeometry x="26" width="26" height="26" as="geometry">
            <mxRectangle width="26" height="26" as="alternateBounds" />
          </mxGeometry>
        </mxCell>
        <mxCell id="fmfwr3C3cZf3HJOBRyC--179" style="shape=partialRectangle;html=1;whiteSpace=wrap;connectable=0;strokeColor=#000000;overflow=hidden;fillColor=none;top=0;left=0;bottom=0;right=0;pointerEvents=1;fontSize=16;strokeWidth=3;" vertex="1" parent="fmfwr3C3cZf3HJOBRyC--176">
          <mxGeometry x="52" width="26" height="26" as="geometry">
            <mxRectangle width="26" height="26" as="alternateBounds" />
          </mxGeometry>
        </mxCell>
        <mxCell id="fmfwr3C3cZf3HJOBRyC--180" style="shape=partialRectangle;html=1;whiteSpace=wrap;connectable=0;strokeColor=#000000;overflow=hidden;fillColor=none;top=0;left=0;bottom=0;right=0;pointerEvents=1;fontSize=16;strokeWidth=3;" vertex="1" parent="fmfwr3C3cZf3HJOBRyC--176">
          <mxGeometry x="78" width="26" height="26" as="geometry">
            <mxRectangle width="26" height="26" as="alternateBounds" />
          </mxGeometry>
        </mxCell>
        <mxCell id="fmfwr3C3cZf3HJOBRyC--181" style="shape=partialRectangle;html=1;whiteSpace=wrap;connectable=0;strokeColor=#000000;overflow=hidden;fillColor=none;top=0;left=0;bottom=0;right=0;pointerEvents=1;fontSize=16;strokeWidth=3;" vertex="1" parent="fmfwr3C3cZf3HJOBRyC--176">
          <mxGeometry x="104" width="26" height="26" as="geometry">
            <mxRectangle width="26" height="26" as="alternateBounds" />
          </mxGeometry>
        </mxCell>
        <mxCell id="fmfwr3C3cZf3HJOBRyC--182" value="&lt;div&gt;&lt;font style=&quot;font-size: 16px;&quot; face=&quot;Courier New&quot;&gt;Binary mask for&lt;/font&gt;&lt;/div&gt;&lt;div&gt;&lt;font style=&quot;font-size: 16px;&quot; face=&quot;Courier New&quot;&gt;sequence B&lt;sub&gt;2&lt;/sub&gt;&lt;/font&gt;&lt;/div&gt;" style="text;html=1;strokeColor=none;fillColor=none;align=center;verticalAlign=middle;whiteSpace=wrap;rounded=0;" vertex="1" parent="1">
          <mxGeometry x="555" y="20" width="160" height="45" as="geometry" />
        </mxCell>
        <mxCell id="fmfwr3C3cZf3HJOBRyC--183" value="" style="shape=table;startSize=0;container=1;collapsible=0;childLayout=tableLayout;fontSize=16;fillColor=none;strokeColor=#000000;strokeWidth=2;" vertex="1" parent="1">
          <mxGeometry x="570" y="253" width="130" height="130" as="geometry" />
        </mxCell>
        <mxCell id="fmfwr3C3cZf3HJOBRyC--184" value="" style="shape=tableRow;horizontal=0;startSize=0;swimlaneHead=0;swimlaneBody=0;strokeColor=#000000;top=0;left=0;bottom=0;right=0;collapsible=0;dropTarget=0;fillColor=none;points=[[0,0.5],[1,0.5]];portConstraint=eastwest;fontSize=16;strokeWidth=3;" vertex="1" parent="fmfwr3C3cZf3HJOBRyC--183">
          <mxGeometry width="130" height="26" as="geometry" />
        </mxCell>
        <mxCell id="fmfwr3C3cZf3HJOBRyC--185" value="" style="shape=partialRectangle;html=1;whiteSpace=wrap;connectable=0;strokeColor=#000000;overflow=hidden;fillColor=#99CCFF;top=0;left=0;bottom=0;right=0;pointerEvents=1;fontSize=16;strokeWidth=3;opacity=60;" vertex="1" parent="fmfwr3C3cZf3HJOBRyC--184">
          <mxGeometry width="26" height="26" as="geometry">
            <mxRectangle width="26" height="26" as="alternateBounds" />
          </mxGeometry>
        </mxCell>
        <mxCell id="fmfwr3C3cZf3HJOBRyC--186" value="" style="shape=partialRectangle;html=1;whiteSpace=wrap;connectable=0;strokeColor=#000000;overflow=hidden;fillColor=#99CCFF;top=0;left=0;bottom=0;right=0;pointerEvents=1;fontSize=16;strokeWidth=3;opacity=60;" vertex="1" parent="fmfwr3C3cZf3HJOBRyC--184">
          <mxGeometry x="26" width="26" height="26" as="geometry">
            <mxRectangle width="26" height="26" as="alternateBounds" />
          </mxGeometry>
        </mxCell>
        <mxCell id="fmfwr3C3cZf3HJOBRyC--187" value="" style="shape=partialRectangle;html=1;whiteSpace=wrap;connectable=0;strokeColor=#000000;overflow=hidden;fillColor=none;top=0;left=0;bottom=0;right=0;pointerEvents=1;fontSize=16;strokeWidth=3;opacity=60;" vertex="1" parent="fmfwr3C3cZf3HJOBRyC--184">
          <mxGeometry x="52" width="26" height="26" as="geometry">
            <mxRectangle width="26" height="26" as="alternateBounds" />
          </mxGeometry>
        </mxCell>
        <mxCell id="fmfwr3C3cZf3HJOBRyC--188" style="shape=partialRectangle;html=1;whiteSpace=wrap;connectable=0;strokeColor=#000000;overflow=hidden;fillColor=none;top=0;left=0;bottom=0;right=0;pointerEvents=1;fontSize=16;strokeWidth=3;opacity=60;" vertex="1" parent="fmfwr3C3cZf3HJOBRyC--184">
          <mxGeometry x="78" width="26" height="26" as="geometry">
            <mxRectangle width="26" height="26" as="alternateBounds" />
          </mxGeometry>
        </mxCell>
        <mxCell id="fmfwr3C3cZf3HJOBRyC--189" style="shape=partialRectangle;html=1;whiteSpace=wrap;connectable=0;strokeColor=#000000;overflow=hidden;fillColor=none;top=0;left=0;bottom=0;right=0;pointerEvents=1;fontSize=16;strokeWidth=3;" vertex="1" parent="fmfwr3C3cZf3HJOBRyC--184">
          <mxGeometry x="104" width="26" height="26" as="geometry">
            <mxRectangle width="26" height="26" as="alternateBounds" />
          </mxGeometry>
        </mxCell>
        <mxCell id="fmfwr3C3cZf3HJOBRyC--190" value="" style="shape=tableRow;horizontal=0;startSize=0;swimlaneHead=0;swimlaneBody=0;strokeColor=#000000;top=0;left=0;bottom=0;right=0;collapsible=0;dropTarget=0;fillColor=none;points=[[0,0.5],[1,0.5]];portConstraint=eastwest;fontSize=16;strokeWidth=3;" vertex="1" parent="fmfwr3C3cZf3HJOBRyC--183">
          <mxGeometry y="26" width="130" height="26" as="geometry" />
        </mxCell>
        <mxCell id="fmfwr3C3cZf3HJOBRyC--191" value="" style="shape=partialRectangle;html=1;whiteSpace=wrap;connectable=0;strokeColor=#000000;overflow=hidden;fillColor=#99CCFF;top=0;left=0;bottom=0;right=0;pointerEvents=1;fontSize=16;strokeWidth=3;opacity=60;" vertex="1" parent="fmfwr3C3cZf3HJOBRyC--190">
          <mxGeometry width="26" height="26" as="geometry">
            <mxRectangle width="26" height="26" as="alternateBounds" />
          </mxGeometry>
        </mxCell>
        <mxCell id="fmfwr3C3cZf3HJOBRyC--192" value="" style="shape=partialRectangle;html=1;whiteSpace=wrap;connectable=0;strokeColor=#000000;overflow=hidden;fillColor=#99CCFF;top=0;left=0;bottom=0;right=0;pointerEvents=1;fontSize=16;strokeWidth=3;opacity=60;" vertex="1" parent="fmfwr3C3cZf3HJOBRyC--190">
          <mxGeometry x="26" width="26" height="26" as="geometry">
            <mxRectangle width="26" height="26" as="alternateBounds" />
          </mxGeometry>
        </mxCell>
        <mxCell id="fmfwr3C3cZf3HJOBRyC--193" value="" style="shape=partialRectangle;html=1;whiteSpace=wrap;connectable=0;strokeColor=#000000;overflow=hidden;fillColor=none;top=0;left=0;bottom=0;right=0;pointerEvents=1;fontSize=16;strokeWidth=3;opacity=60;" vertex="1" parent="fmfwr3C3cZf3HJOBRyC--190">
          <mxGeometry x="52" width="26" height="26" as="geometry">
            <mxRectangle width="26" height="26" as="alternateBounds" />
          </mxGeometry>
        </mxCell>
        <mxCell id="fmfwr3C3cZf3HJOBRyC--194" style="shape=partialRectangle;html=1;whiteSpace=wrap;connectable=0;strokeColor=#000000;overflow=hidden;fillColor=none;top=0;left=0;bottom=0;right=0;pointerEvents=1;fontSize=16;strokeWidth=3;opacity=60;" vertex="1" parent="fmfwr3C3cZf3HJOBRyC--190">
          <mxGeometry x="78" width="26" height="26" as="geometry">
            <mxRectangle width="26" height="26" as="alternateBounds" />
          </mxGeometry>
        </mxCell>
        <mxCell id="fmfwr3C3cZf3HJOBRyC--195" style="shape=partialRectangle;html=1;whiteSpace=wrap;connectable=0;strokeColor=#000000;overflow=hidden;fillColor=none;top=0;left=0;bottom=0;right=0;pointerEvents=1;fontSize=16;strokeWidth=3;" vertex="1" parent="fmfwr3C3cZf3HJOBRyC--190">
          <mxGeometry x="104" width="26" height="26" as="geometry">
            <mxRectangle width="26" height="26" as="alternateBounds" />
          </mxGeometry>
        </mxCell>
        <mxCell id="fmfwr3C3cZf3HJOBRyC--196" value="" style="shape=tableRow;horizontal=0;startSize=0;swimlaneHead=0;swimlaneBody=0;strokeColor=#000000;top=0;left=0;bottom=0;right=0;collapsible=0;dropTarget=0;fillColor=none;points=[[0,0.5],[1,0.5]];portConstraint=eastwest;fontSize=16;strokeWidth=3;" vertex="1" parent="fmfwr3C3cZf3HJOBRyC--183">
          <mxGeometry y="52" width="130" height="26" as="geometry" />
        </mxCell>
        <mxCell id="fmfwr3C3cZf3HJOBRyC--197" value="" style="shape=partialRectangle;html=1;whiteSpace=wrap;connectable=0;strokeColor=#000000;overflow=hidden;fillColor=none;top=0;left=0;bottom=0;right=0;pointerEvents=1;fontSize=16;strokeWidth=3;opacity=60;" vertex="1" parent="fmfwr3C3cZf3HJOBRyC--196">
          <mxGeometry width="26" height="26" as="geometry">
            <mxRectangle width="26" height="26" as="alternateBounds" />
          </mxGeometry>
        </mxCell>
        <mxCell id="fmfwr3C3cZf3HJOBRyC--198" value="" style="shape=partialRectangle;html=1;whiteSpace=wrap;connectable=0;strokeColor=#000000;overflow=hidden;fillColor=none;top=0;left=0;bottom=0;right=0;pointerEvents=1;fontSize=16;strokeWidth=3;opacity=60;" vertex="1" parent="fmfwr3C3cZf3HJOBRyC--196">
          <mxGeometry x="26" width="26" height="26" as="geometry">
            <mxRectangle width="26" height="26" as="alternateBounds" />
          </mxGeometry>
        </mxCell>
        <mxCell id="fmfwr3C3cZf3HJOBRyC--199" value="&lt;table&gt;&lt;tbody&gt;&lt;tr&gt;&lt;td&gt;&lt;br&gt;&lt;/td&gt;&lt;td&gt;&lt;br&gt;&lt;/td&gt;&lt;td&gt;&lt;br&gt;&lt;/td&gt;&lt;td&gt;&lt;br&gt;&lt;/td&gt;&lt;td&gt;&lt;br&gt;&lt;/td&gt;&lt;td&gt;&lt;br&gt;&lt;/td&gt;&lt;td&gt;&lt;br&gt;&lt;/td&gt;&lt;td&gt;&lt;br&gt;&lt;/td&gt;&lt;td&gt;&lt;br&gt;&lt;/td&gt;&lt;td&gt;&lt;br&gt;&lt;/td&gt;&lt;/tr&gt;&lt;tr&gt;&lt;td&gt;&lt;br&gt;&lt;/td&gt;&lt;td&gt;&lt;br&gt;&lt;/td&gt;&lt;td&gt;&lt;br&gt;&lt;/td&gt;&lt;td&gt;&lt;br&gt;&lt;/td&gt;&lt;td&gt;&lt;br&gt;&lt;/td&gt;&lt;td&gt;&lt;br&gt;&lt;/td&gt;&lt;td&gt;&lt;br&gt;&lt;/td&gt;&lt;td&gt;&lt;br&gt;&lt;/td&gt;&lt;td&gt;&lt;br&gt;&lt;/td&gt;&lt;td&gt;&lt;br&gt;&lt;/td&gt;&lt;/tr&gt;&lt;tr&gt;&lt;td&gt;&lt;br&gt;&lt;/td&gt;&lt;td&gt;&lt;br&gt;&lt;/td&gt;&lt;td&gt;&lt;br&gt;&lt;/td&gt;&lt;td&gt;&lt;br&gt;&lt;/td&gt;&lt;td&gt;&lt;br&gt;&lt;/td&gt;&lt;td&gt;&lt;br&gt;&lt;/td&gt;&lt;td&gt;&lt;br&gt;&lt;/td&gt;&lt;td&gt;&lt;br&gt;&lt;/td&gt;&lt;td&gt;&lt;br&gt;&lt;/td&gt;&lt;td&gt;&lt;br&gt;&lt;/td&gt;&lt;/tr&gt;&lt;tr&gt;&lt;td&gt;&lt;br&gt;&lt;/td&gt;&lt;td&gt;&lt;br&gt;&lt;/td&gt;&lt;td&gt;&lt;br&gt;&lt;/td&gt;&lt;td&gt;&lt;br&gt;&lt;/td&gt;&lt;td&gt;&lt;br&gt;&lt;/td&gt;&lt;td&gt;&lt;br&gt;&lt;/td&gt;&lt;td&gt;&lt;br&gt;&lt;/td&gt;&lt;td&gt;&lt;br&gt;&lt;/td&gt;&lt;td&gt;&lt;br&gt;&lt;/td&gt;&lt;td&gt;&lt;br&gt;&lt;/td&gt;&lt;/tr&gt;&lt;/tbody&gt;&lt;/table&gt;" style="shape=partialRectangle;html=1;whiteSpace=wrap;connectable=0;strokeColor=#000000;overflow=hidden;fillColor=none;top=0;left=0;bottom=0;right=0;pointerEvents=1;fontSize=16;strokeWidth=3;opacity=60;" vertex="1" parent="fmfwr3C3cZf3HJOBRyC--196">
          <mxGeometry x="52" width="26" height="26" as="geometry">
            <mxRectangle width="26" height="26" as="alternateBounds" />
          </mxGeometry>
        </mxCell>
        <mxCell id="fmfwr3C3cZf3HJOBRyC--200" style="shape=partialRectangle;html=1;whiteSpace=wrap;connectable=0;strokeColor=#000000;overflow=hidden;fillColor=none;top=0;left=0;bottom=0;right=0;pointerEvents=1;fontSize=16;strokeWidth=3;opacity=60;" vertex="1" parent="fmfwr3C3cZf3HJOBRyC--196">
          <mxGeometry x="78" width="26" height="26" as="geometry">
            <mxRectangle width="26" height="26" as="alternateBounds" />
          </mxGeometry>
        </mxCell>
        <mxCell id="fmfwr3C3cZf3HJOBRyC--201" style="shape=partialRectangle;html=1;whiteSpace=wrap;connectable=0;strokeColor=#000000;overflow=hidden;fillColor=none;top=0;left=0;bottom=0;right=0;pointerEvents=1;fontSize=16;strokeWidth=3;opacity=60;" vertex="1" parent="fmfwr3C3cZf3HJOBRyC--196">
          <mxGeometry x="104" width="26" height="26" as="geometry">
            <mxRectangle width="26" height="26" as="alternateBounds" />
          </mxGeometry>
        </mxCell>
        <mxCell id="fmfwr3C3cZf3HJOBRyC--202" value="" style="shape=tableRow;horizontal=0;startSize=0;swimlaneHead=0;swimlaneBody=0;strokeColor=#000000;top=0;left=0;bottom=0;right=0;collapsible=0;dropTarget=0;fillColor=none;points=[[0,0.5],[1,0.5]];portConstraint=eastwest;fontSize=16;strokeWidth=3;" vertex="1" parent="fmfwr3C3cZf3HJOBRyC--183">
          <mxGeometry y="78" width="130" height="26" as="geometry" />
        </mxCell>
        <mxCell id="fmfwr3C3cZf3HJOBRyC--203" value="" style="shape=partialRectangle;html=1;whiteSpace=wrap;connectable=0;strokeColor=#000000;overflow=hidden;fillColor=none;top=0;left=0;bottom=0;right=0;pointerEvents=1;fontSize=16;strokeWidth=3;opacity=60;" vertex="1" parent="fmfwr3C3cZf3HJOBRyC--202">
          <mxGeometry width="26" height="26" as="geometry">
            <mxRectangle width="26" height="26" as="alternateBounds" />
          </mxGeometry>
        </mxCell>
        <mxCell id="fmfwr3C3cZf3HJOBRyC--204" value="" style="shape=partialRectangle;html=1;whiteSpace=wrap;connectable=0;strokeColor=#000000;overflow=hidden;fillColor=none;top=0;left=0;bottom=0;right=0;pointerEvents=1;fontSize=16;strokeWidth=3;opacity=60;" vertex="1" parent="fmfwr3C3cZf3HJOBRyC--202">
          <mxGeometry x="26" width="26" height="26" as="geometry">
            <mxRectangle width="26" height="26" as="alternateBounds" />
          </mxGeometry>
        </mxCell>
        <mxCell id="fmfwr3C3cZf3HJOBRyC--205" value="&lt;table&gt;&lt;tbody&gt;&lt;tr&gt;&lt;td&gt;&lt;br&gt;&lt;/td&gt;&lt;td&gt;&lt;br&gt;&lt;/td&gt;&lt;td&gt;&lt;br&gt;&lt;/td&gt;&lt;td&gt;&lt;br&gt;&lt;/td&gt;&lt;td&gt;&lt;br&gt;&lt;/td&gt;&lt;td&gt;&lt;br&gt;&lt;/td&gt;&lt;/tr&gt;&lt;tr&gt;&lt;td&gt;&lt;br&gt;&lt;/td&gt;&lt;td&gt;&lt;br&gt;&lt;/td&gt;&lt;td&gt;&lt;br&gt;&lt;/td&gt;&lt;td&gt;&lt;br&gt;&lt;/td&gt;&lt;td&gt;&lt;br&gt;&lt;/td&gt;&lt;td&gt;&lt;br&gt;&lt;/td&gt;&lt;/tr&gt;&lt;tr&gt;&lt;td&gt;&lt;br&gt;&lt;/td&gt;&lt;td&gt;&lt;br&gt;&lt;/td&gt;&lt;td&gt;&lt;br&gt;&lt;/td&gt;&lt;td&gt;&lt;br&gt;&lt;/td&gt;&lt;td&gt;&lt;br&gt;&lt;/td&gt;&lt;td&gt;&lt;br&gt;&lt;/td&gt;&lt;/tr&gt;&lt;tr&gt;&lt;td&gt;&lt;br&gt;&lt;/td&gt;&lt;td&gt;&lt;br&gt;&lt;/td&gt;&lt;td&gt;&lt;br&gt;&lt;/td&gt;&lt;td&gt;&lt;br&gt;&lt;/td&gt;&lt;td&gt;&lt;br&gt;&lt;/td&gt;&lt;td&gt;&lt;br&gt;&lt;/td&gt;&lt;/tr&gt;&lt;tr&gt;&lt;td&gt;&lt;br&gt;&lt;/td&gt;&lt;td&gt;&lt;br&gt;&lt;/td&gt;&lt;td&gt;&lt;br&gt;&lt;/td&gt;&lt;td&gt;&lt;br&gt;&lt;/td&gt;&lt;td&gt;&lt;br&gt;&lt;/td&gt;&lt;td&gt;&lt;br&gt;&lt;/td&gt;&lt;/tr&gt;&lt;/tbody&gt;&lt;/table&gt;" style="shape=partialRectangle;html=1;whiteSpace=wrap;connectable=0;strokeColor=#000000;overflow=hidden;fillColor=none;top=0;left=0;bottom=0;right=0;pointerEvents=1;fontSize=16;strokeWidth=3;opacity=60;" vertex="1" parent="fmfwr3C3cZf3HJOBRyC--202">
          <mxGeometry x="52" width="26" height="26" as="geometry">
            <mxRectangle width="26" height="26" as="alternateBounds" />
          </mxGeometry>
        </mxCell>
        <mxCell id="fmfwr3C3cZf3HJOBRyC--206" style="shape=partialRectangle;html=1;whiteSpace=wrap;connectable=0;strokeColor=#000000;overflow=hidden;fillColor=none;top=0;left=0;bottom=0;right=0;pointerEvents=1;fontSize=16;strokeWidth=3;opacity=60;" vertex="1" parent="fmfwr3C3cZf3HJOBRyC--202">
          <mxGeometry x="78" width="26" height="26" as="geometry">
            <mxRectangle width="26" height="26" as="alternateBounds" />
          </mxGeometry>
        </mxCell>
        <mxCell id="fmfwr3C3cZf3HJOBRyC--207" style="shape=partialRectangle;html=1;whiteSpace=wrap;connectable=0;strokeColor=#000000;overflow=hidden;fillColor=none;top=0;left=0;bottom=0;right=0;pointerEvents=1;fontSize=16;strokeWidth=3;" vertex="1" parent="fmfwr3C3cZf3HJOBRyC--202">
          <mxGeometry x="104" width="26" height="26" as="geometry">
            <mxRectangle width="26" height="26" as="alternateBounds" />
          </mxGeometry>
        </mxCell>
        <mxCell id="fmfwr3C3cZf3HJOBRyC--208" style="shape=tableRow;horizontal=0;startSize=0;swimlaneHead=0;swimlaneBody=0;strokeColor=#000000;top=0;left=0;bottom=0;right=0;collapsible=0;dropTarget=0;fillColor=none;points=[[0,0.5],[1,0.5]];portConstraint=eastwest;fontSize=16;strokeWidth=3;" vertex="1" parent="fmfwr3C3cZf3HJOBRyC--183">
          <mxGeometry y="104" width="130" height="26" as="geometry" />
        </mxCell>
        <mxCell id="fmfwr3C3cZf3HJOBRyC--209" style="shape=partialRectangle;html=1;whiteSpace=wrap;connectable=0;strokeColor=#000000;overflow=hidden;fillColor=none;top=0;left=0;bottom=0;right=0;pointerEvents=1;fontSize=16;strokeWidth=3;opacity=60;" vertex="1" parent="fmfwr3C3cZf3HJOBRyC--208">
          <mxGeometry width="26" height="26" as="geometry">
            <mxRectangle width="26" height="26" as="alternateBounds" />
          </mxGeometry>
        </mxCell>
        <mxCell id="fmfwr3C3cZf3HJOBRyC--210" style="shape=partialRectangle;html=1;whiteSpace=wrap;connectable=0;strokeColor=#000000;overflow=hidden;fillColor=none;top=0;left=0;bottom=0;right=0;pointerEvents=1;fontSize=16;strokeWidth=3;opacity=60;" vertex="1" parent="fmfwr3C3cZf3HJOBRyC--208">
          <mxGeometry x="26" width="26" height="26" as="geometry">
            <mxRectangle width="26" height="26" as="alternateBounds" />
          </mxGeometry>
        </mxCell>
        <mxCell id="fmfwr3C3cZf3HJOBRyC--211" style="shape=partialRectangle;html=1;whiteSpace=wrap;connectable=0;strokeColor=#000000;overflow=hidden;fillColor=none;top=0;left=0;bottom=0;right=0;pointerEvents=1;fontSize=16;strokeWidth=3;" vertex="1" parent="fmfwr3C3cZf3HJOBRyC--208">
          <mxGeometry x="52" width="26" height="26" as="geometry">
            <mxRectangle width="26" height="26" as="alternateBounds" />
          </mxGeometry>
        </mxCell>
        <mxCell id="fmfwr3C3cZf3HJOBRyC--212" style="shape=partialRectangle;html=1;whiteSpace=wrap;connectable=0;strokeColor=#000000;overflow=hidden;fillColor=none;top=0;left=0;bottom=0;right=0;pointerEvents=1;fontSize=16;strokeWidth=3;" vertex="1" parent="fmfwr3C3cZf3HJOBRyC--208">
          <mxGeometry x="78" width="26" height="26" as="geometry">
            <mxRectangle width="26" height="26" as="alternateBounds" />
          </mxGeometry>
        </mxCell>
        <mxCell id="fmfwr3C3cZf3HJOBRyC--213" style="shape=partialRectangle;html=1;whiteSpace=wrap;connectable=0;strokeColor=#000000;overflow=hidden;fillColor=none;top=0;left=0;bottom=0;right=0;pointerEvents=1;fontSize=16;strokeWidth=3;" vertex="1" parent="fmfwr3C3cZf3HJOBRyC--208">
          <mxGeometry x="104" width="26" height="26" as="geometry">
            <mxRectangle width="26" height="26" as="alternateBounds" />
          </mxGeometry>
        </mxCell>
        <mxCell id="fmfwr3C3cZf3HJOBRyC--214" value="&lt;div&gt;&lt;font style=&quot;font-size: 16px;&quot; face=&quot;Courier New&quot;&gt;Binary mask for&lt;/font&gt;&lt;/div&gt;&lt;div&gt;&lt;font style=&quot;font-size: 16px;&quot; face=&quot;Courier New&quot;&gt;sequence B&lt;sub&gt;2&lt;/sub&gt;&lt;/font&gt;&lt;/div&gt;" style="text;html=1;strokeColor=none;fillColor=none;align=center;verticalAlign=middle;whiteSpace=wrap;rounded=0;" vertex="1" parent="1">
          <mxGeometry x="555" y="208" width="160" height="45" as="geometry" />
        </mxCell>
        <mxCell id="fmfwr3C3cZf3HJOBRyC--215" value="" style="shape=table;startSize=0;container=1;collapsible=0;childLayout=tableLayout;fontSize=16;fillColor=none;strokeColor=#000000;strokeWidth=2;" vertex="1" parent="1">
          <mxGeometry x="155" y="270.5" width="130" height="130" as="geometry" />
        </mxCell>
        <mxCell id="fmfwr3C3cZf3HJOBRyC--216" value="" style="shape=tableRow;horizontal=0;startSize=0;swimlaneHead=0;swimlaneBody=0;strokeColor=#000000;top=0;left=0;bottom=0;right=0;collapsible=0;dropTarget=0;fillColor=none;points=[[0,0.5],[1,0.5]];portConstraint=eastwest;fontSize=16;strokeWidth=3;" vertex="1" parent="fmfwr3C3cZf3HJOBRyC--215">
          <mxGeometry width="130" height="26" as="geometry" />
        </mxCell>
        <mxCell id="fmfwr3C3cZf3HJOBRyC--217" value="" style="shape=partialRectangle;html=1;whiteSpace=wrap;connectable=0;strokeColor=#000000;overflow=hidden;fillColor=#99CCFF;top=0;left=0;bottom=0;right=0;pointerEvents=1;fontSize=16;strokeWidth=3;opacity=60;" vertex="1" parent="fmfwr3C3cZf3HJOBRyC--216">
          <mxGeometry width="26" height="26" as="geometry">
            <mxRectangle width="26" height="26" as="alternateBounds" />
          </mxGeometry>
        </mxCell>
        <mxCell id="fmfwr3C3cZf3HJOBRyC--218" value="" style="shape=partialRectangle;html=1;whiteSpace=wrap;connectable=0;strokeColor=#000000;overflow=hidden;fillColor=none;top=0;left=0;bottom=0;right=0;pointerEvents=1;fontSize=16;strokeWidth=3;opacity=60;" vertex="1" parent="fmfwr3C3cZf3HJOBRyC--216">
          <mxGeometry x="26" width="26" height="26" as="geometry">
            <mxRectangle width="26" height="26" as="alternateBounds" />
          </mxGeometry>
        </mxCell>
        <mxCell id="fmfwr3C3cZf3HJOBRyC--219" value="" style="shape=partialRectangle;html=1;whiteSpace=wrap;connectable=0;strokeColor=#000000;overflow=hidden;fillColor=none;top=0;left=0;bottom=0;right=0;pointerEvents=1;fontSize=16;strokeWidth=3;opacity=60;" vertex="1" parent="fmfwr3C3cZf3HJOBRyC--216">
          <mxGeometry x="52" width="26" height="26" as="geometry">
            <mxRectangle width="26" height="26" as="alternateBounds" />
          </mxGeometry>
        </mxCell>
        <mxCell id="fmfwr3C3cZf3HJOBRyC--220" style="shape=partialRectangle;html=1;whiteSpace=wrap;connectable=0;strokeColor=#000000;overflow=hidden;fillColor=none;top=0;left=0;bottom=0;right=0;pointerEvents=1;fontSize=16;strokeWidth=3;opacity=60;" vertex="1" parent="fmfwr3C3cZf3HJOBRyC--216">
          <mxGeometry x="78" width="26" height="26" as="geometry">
            <mxRectangle width="26" height="26" as="alternateBounds" />
          </mxGeometry>
        </mxCell>
        <mxCell id="fmfwr3C3cZf3HJOBRyC--221" style="shape=partialRectangle;html=1;whiteSpace=wrap;connectable=0;strokeColor=#000000;overflow=hidden;fillColor=none;top=0;left=0;bottom=0;right=0;pointerEvents=1;fontSize=16;strokeWidth=3;" vertex="1" parent="fmfwr3C3cZf3HJOBRyC--216">
          <mxGeometry x="104" width="26" height="26" as="geometry">
            <mxRectangle width="26" height="26" as="alternateBounds" />
          </mxGeometry>
        </mxCell>
        <mxCell id="fmfwr3C3cZf3HJOBRyC--222" value="" style="shape=tableRow;horizontal=0;startSize=0;swimlaneHead=0;swimlaneBody=0;strokeColor=#000000;top=0;left=0;bottom=0;right=0;collapsible=0;dropTarget=0;fillColor=none;points=[[0,0.5],[1,0.5]];portConstraint=eastwest;fontSize=16;strokeWidth=3;" vertex="1" parent="fmfwr3C3cZf3HJOBRyC--215">
          <mxGeometry y="26" width="130" height="26" as="geometry" />
        </mxCell>
        <mxCell id="fmfwr3C3cZf3HJOBRyC--223" value="" style="shape=partialRectangle;html=1;whiteSpace=wrap;connectable=0;strokeColor=#000000;overflow=hidden;fillColor=#99CCFF;top=0;left=0;bottom=0;right=0;pointerEvents=1;fontSize=16;strokeWidth=3;opacity=60;" vertex="1" parent="fmfwr3C3cZf3HJOBRyC--222">
          <mxGeometry width="26" height="26" as="geometry">
            <mxRectangle width="26" height="26" as="alternateBounds" />
          </mxGeometry>
        </mxCell>
        <mxCell id="fmfwr3C3cZf3HJOBRyC--224" value="" style="shape=partialRectangle;html=1;whiteSpace=wrap;connectable=0;strokeColor=#000000;overflow=hidden;fillColor=#99CCFF;top=0;left=0;bottom=0;right=0;pointerEvents=1;fontSize=16;strokeWidth=3;opacity=60;" vertex="1" parent="fmfwr3C3cZf3HJOBRyC--222">
          <mxGeometry x="26" width="26" height="26" as="geometry">
            <mxRectangle width="26" height="26" as="alternateBounds" />
          </mxGeometry>
        </mxCell>
        <mxCell id="fmfwr3C3cZf3HJOBRyC--225" value="" style="shape=partialRectangle;html=1;whiteSpace=wrap;connectable=0;strokeColor=#000000;overflow=hidden;fillColor=none;top=0;left=0;bottom=0;right=0;pointerEvents=1;fontSize=16;strokeWidth=3;opacity=60;" vertex="1" parent="fmfwr3C3cZf3HJOBRyC--222">
          <mxGeometry x="52" width="26" height="26" as="geometry">
            <mxRectangle width="26" height="26" as="alternateBounds" />
          </mxGeometry>
        </mxCell>
        <mxCell id="fmfwr3C3cZf3HJOBRyC--226" style="shape=partialRectangle;html=1;whiteSpace=wrap;connectable=0;strokeColor=#000000;overflow=hidden;fillColor=none;top=0;left=0;bottom=0;right=0;pointerEvents=1;fontSize=16;strokeWidth=3;opacity=60;" vertex="1" parent="fmfwr3C3cZf3HJOBRyC--222">
          <mxGeometry x="78" width="26" height="26" as="geometry">
            <mxRectangle width="26" height="26" as="alternateBounds" />
          </mxGeometry>
        </mxCell>
        <mxCell id="fmfwr3C3cZf3HJOBRyC--227" style="shape=partialRectangle;html=1;whiteSpace=wrap;connectable=0;strokeColor=#000000;overflow=hidden;fillColor=none;top=0;left=0;bottom=0;right=0;pointerEvents=1;fontSize=16;strokeWidth=3;" vertex="1" parent="fmfwr3C3cZf3HJOBRyC--222">
          <mxGeometry x="104" width="26" height="26" as="geometry">
            <mxRectangle width="26" height="26" as="alternateBounds" />
          </mxGeometry>
        </mxCell>
        <mxCell id="fmfwr3C3cZf3HJOBRyC--228" value="" style="shape=tableRow;horizontal=0;startSize=0;swimlaneHead=0;swimlaneBody=0;strokeColor=#000000;top=0;left=0;bottom=0;right=0;collapsible=0;dropTarget=0;fillColor=none;points=[[0,0.5],[1,0.5]];portConstraint=eastwest;fontSize=16;strokeWidth=3;" vertex="1" parent="fmfwr3C3cZf3HJOBRyC--215">
          <mxGeometry y="52" width="130" height="26" as="geometry" />
        </mxCell>
        <mxCell id="fmfwr3C3cZf3HJOBRyC--229" value="" style="shape=partialRectangle;html=1;whiteSpace=wrap;connectable=0;strokeColor=#000000;overflow=hidden;fillColor=#99CCFF;top=0;left=0;bottom=0;right=0;pointerEvents=1;fontSize=16;strokeWidth=3;opacity=60;" vertex="1" parent="fmfwr3C3cZf3HJOBRyC--228">
          <mxGeometry width="26" height="26" as="geometry">
            <mxRectangle width="26" height="26" as="alternateBounds" />
          </mxGeometry>
        </mxCell>
        <mxCell id="fmfwr3C3cZf3HJOBRyC--230" value="" style="shape=partialRectangle;html=1;whiteSpace=wrap;connectable=0;strokeColor=#000000;overflow=hidden;fillColor=#99CCFF;top=0;left=0;bottom=0;right=0;pointerEvents=1;fontSize=16;strokeWidth=3;opacity=60;" vertex="1" parent="fmfwr3C3cZf3HJOBRyC--228">
          <mxGeometry x="26" width="26" height="26" as="geometry">
            <mxRectangle width="26" height="26" as="alternateBounds" />
          </mxGeometry>
        </mxCell>
        <mxCell id="fmfwr3C3cZf3HJOBRyC--231" value="&lt;table&gt;&lt;tbody&gt;&lt;tr&gt;&lt;td&gt;&lt;br&gt;&lt;/td&gt;&lt;td&gt;&lt;br&gt;&lt;/td&gt;&lt;td&gt;&lt;br&gt;&lt;/td&gt;&lt;td&gt;&lt;br&gt;&lt;/td&gt;&lt;td&gt;&lt;br&gt;&lt;/td&gt;&lt;td&gt;&lt;br&gt;&lt;/td&gt;&lt;td&gt;&lt;br&gt;&lt;/td&gt;&lt;td&gt;&lt;br&gt;&lt;/td&gt;&lt;td&gt;&lt;br&gt;&lt;/td&gt;&lt;td&gt;&lt;br&gt;&lt;/td&gt;&lt;/tr&gt;&lt;tr&gt;&lt;td&gt;&lt;br&gt;&lt;/td&gt;&lt;td&gt;&lt;br&gt;&lt;/td&gt;&lt;td&gt;&lt;br&gt;&lt;/td&gt;&lt;td&gt;&lt;br&gt;&lt;/td&gt;&lt;td&gt;&lt;br&gt;&lt;/td&gt;&lt;td&gt;&lt;br&gt;&lt;/td&gt;&lt;td&gt;&lt;br&gt;&lt;/td&gt;&lt;td&gt;&lt;br&gt;&lt;/td&gt;&lt;td&gt;&lt;br&gt;&lt;/td&gt;&lt;td&gt;&lt;br&gt;&lt;/td&gt;&lt;/tr&gt;&lt;tr&gt;&lt;td&gt;&lt;br&gt;&lt;/td&gt;&lt;td&gt;&lt;br&gt;&lt;/td&gt;&lt;td&gt;&lt;br&gt;&lt;/td&gt;&lt;td&gt;&lt;br&gt;&lt;/td&gt;&lt;td&gt;&lt;br&gt;&lt;/td&gt;&lt;td&gt;&lt;br&gt;&lt;/td&gt;&lt;td&gt;&lt;br&gt;&lt;/td&gt;&lt;td&gt;&lt;br&gt;&lt;/td&gt;&lt;td&gt;&lt;br&gt;&lt;/td&gt;&lt;td&gt;&lt;br&gt;&lt;/td&gt;&lt;/tr&gt;&lt;tr&gt;&lt;td&gt;&lt;br&gt;&lt;/td&gt;&lt;td&gt;&lt;br&gt;&lt;/td&gt;&lt;td&gt;&lt;br&gt;&lt;/td&gt;&lt;td&gt;&lt;br&gt;&lt;/td&gt;&lt;td&gt;&lt;br&gt;&lt;/td&gt;&lt;td&gt;&lt;br&gt;&lt;/td&gt;&lt;td&gt;&lt;br&gt;&lt;/td&gt;&lt;td&gt;&lt;br&gt;&lt;/td&gt;&lt;td&gt;&lt;br&gt;&lt;/td&gt;&lt;td&gt;&lt;br&gt;&lt;/td&gt;&lt;/tr&gt;&lt;/tbody&gt;&lt;/table&gt;" style="shape=partialRectangle;html=1;whiteSpace=wrap;connectable=0;strokeColor=#000000;overflow=hidden;fillColor=#99CCFF;top=0;left=0;bottom=0;right=0;pointerEvents=1;fontSize=16;strokeWidth=3;opacity=60;" vertex="1" parent="fmfwr3C3cZf3HJOBRyC--228">
          <mxGeometry x="52" width="26" height="26" as="geometry">
            <mxRectangle width="26" height="26" as="alternateBounds" />
          </mxGeometry>
        </mxCell>
        <mxCell id="fmfwr3C3cZf3HJOBRyC--232" style="shape=partialRectangle;html=1;whiteSpace=wrap;connectable=0;strokeColor=#000000;overflow=hidden;fillColor=none;top=0;left=0;bottom=0;right=0;pointerEvents=1;fontSize=16;strokeWidth=3;opacity=60;" vertex="1" parent="fmfwr3C3cZf3HJOBRyC--228">
          <mxGeometry x="78" width="26" height="26" as="geometry">
            <mxRectangle width="26" height="26" as="alternateBounds" />
          </mxGeometry>
        </mxCell>
        <mxCell id="fmfwr3C3cZf3HJOBRyC--233" style="shape=partialRectangle;html=1;whiteSpace=wrap;connectable=0;strokeColor=#000000;overflow=hidden;fillColor=none;top=0;left=0;bottom=0;right=0;pointerEvents=1;fontSize=16;strokeWidth=3;opacity=60;" vertex="1" parent="fmfwr3C3cZf3HJOBRyC--228">
          <mxGeometry x="104" width="26" height="26" as="geometry">
            <mxRectangle width="26" height="26" as="alternateBounds" />
          </mxGeometry>
        </mxCell>
        <mxCell id="fmfwr3C3cZf3HJOBRyC--234" value="" style="shape=tableRow;horizontal=0;startSize=0;swimlaneHead=0;swimlaneBody=0;strokeColor=#000000;top=0;left=0;bottom=0;right=0;collapsible=0;dropTarget=0;fillColor=none;points=[[0,0.5],[1,0.5]];portConstraint=eastwest;fontSize=16;strokeWidth=3;" vertex="1" parent="fmfwr3C3cZf3HJOBRyC--215">
          <mxGeometry y="78" width="130" height="26" as="geometry" />
        </mxCell>
        <mxCell id="fmfwr3C3cZf3HJOBRyC--235" value="" style="shape=partialRectangle;html=1;whiteSpace=wrap;connectable=0;strokeColor=#000000;overflow=hidden;fillColor=#99CCFF;top=0;left=0;bottom=0;right=0;pointerEvents=1;fontSize=16;strokeWidth=3;opacity=60;" vertex="1" parent="fmfwr3C3cZf3HJOBRyC--234">
          <mxGeometry width="26" height="26" as="geometry">
            <mxRectangle width="26" height="26" as="alternateBounds" />
          </mxGeometry>
        </mxCell>
        <mxCell id="fmfwr3C3cZf3HJOBRyC--236" value="" style="shape=partialRectangle;html=1;whiteSpace=wrap;connectable=0;strokeColor=#000000;overflow=hidden;fillColor=#99CCFF;top=0;left=0;bottom=0;right=0;pointerEvents=1;fontSize=16;strokeWidth=3;opacity=60;" vertex="1" parent="fmfwr3C3cZf3HJOBRyC--234">
          <mxGeometry x="26" width="26" height="26" as="geometry">
            <mxRectangle width="26" height="26" as="alternateBounds" />
          </mxGeometry>
        </mxCell>
        <mxCell id="fmfwr3C3cZf3HJOBRyC--237" value="&lt;table&gt;&lt;tbody&gt;&lt;tr&gt;&lt;td&gt;&lt;br&gt;&lt;/td&gt;&lt;td&gt;&lt;br&gt;&lt;/td&gt;&lt;td&gt;&lt;br&gt;&lt;/td&gt;&lt;td&gt;&lt;br&gt;&lt;/td&gt;&lt;td&gt;&lt;br&gt;&lt;/td&gt;&lt;td&gt;&lt;br&gt;&lt;/td&gt;&lt;/tr&gt;&lt;tr&gt;&lt;td&gt;&lt;br&gt;&lt;/td&gt;&lt;td&gt;&lt;br&gt;&lt;/td&gt;&lt;td&gt;&lt;br&gt;&lt;/td&gt;&lt;td&gt;&lt;br&gt;&lt;/td&gt;&lt;td&gt;&lt;br&gt;&lt;/td&gt;&lt;td&gt;&lt;br&gt;&lt;/td&gt;&lt;/tr&gt;&lt;tr&gt;&lt;td&gt;&lt;br&gt;&lt;/td&gt;&lt;td&gt;&lt;br&gt;&lt;/td&gt;&lt;td&gt;&lt;br&gt;&lt;/td&gt;&lt;td&gt;&lt;br&gt;&lt;/td&gt;&lt;td&gt;&lt;br&gt;&lt;/td&gt;&lt;td&gt;&lt;br&gt;&lt;/td&gt;&lt;/tr&gt;&lt;tr&gt;&lt;td&gt;&lt;br&gt;&lt;/td&gt;&lt;td&gt;&lt;br&gt;&lt;/td&gt;&lt;td&gt;&lt;br&gt;&lt;/td&gt;&lt;td&gt;&lt;br&gt;&lt;/td&gt;&lt;td&gt;&lt;br&gt;&lt;/td&gt;&lt;td&gt;&lt;br&gt;&lt;/td&gt;&lt;/tr&gt;&lt;tr&gt;&lt;td&gt;&lt;br&gt;&lt;/td&gt;&lt;td&gt;&lt;br&gt;&lt;/td&gt;&lt;td&gt;&lt;br&gt;&lt;/td&gt;&lt;td&gt;&lt;br&gt;&lt;/td&gt;&lt;td&gt;&lt;br&gt;&lt;/td&gt;&lt;td&gt;&lt;br&gt;&lt;/td&gt;&lt;/tr&gt;&lt;/tbody&gt;&lt;/table&gt;" style="shape=partialRectangle;html=1;whiteSpace=wrap;connectable=0;strokeColor=#000000;overflow=hidden;fillColor=#99CCFF;top=0;left=0;bottom=0;right=0;pointerEvents=1;fontSize=16;strokeWidth=3;opacity=60;" vertex="1" parent="fmfwr3C3cZf3HJOBRyC--234">
          <mxGeometry x="52" width="26" height="26" as="geometry">
            <mxRectangle width="26" height="26" as="alternateBounds" />
          </mxGeometry>
        </mxCell>
        <mxCell id="fmfwr3C3cZf3HJOBRyC--238" style="shape=partialRectangle;html=1;whiteSpace=wrap;connectable=0;strokeColor=#000000;overflow=hidden;fillColor=#99CCFF;top=0;left=0;bottom=0;right=0;pointerEvents=1;fontSize=16;strokeWidth=3;opacity=60;" vertex="1" parent="fmfwr3C3cZf3HJOBRyC--234">
          <mxGeometry x="78" width="26" height="26" as="geometry">
            <mxRectangle width="26" height="26" as="alternateBounds" />
          </mxGeometry>
        </mxCell>
        <mxCell id="fmfwr3C3cZf3HJOBRyC--239" style="shape=partialRectangle;html=1;whiteSpace=wrap;connectable=0;strokeColor=#000000;overflow=hidden;fillColor=none;top=0;left=0;bottom=0;right=0;pointerEvents=1;fontSize=16;strokeWidth=3;" vertex="1" parent="fmfwr3C3cZf3HJOBRyC--234">
          <mxGeometry x="104" width="26" height="26" as="geometry">
            <mxRectangle width="26" height="26" as="alternateBounds" />
          </mxGeometry>
        </mxCell>
        <mxCell id="fmfwr3C3cZf3HJOBRyC--240" style="shape=tableRow;horizontal=0;startSize=0;swimlaneHead=0;swimlaneBody=0;strokeColor=#000000;top=0;left=0;bottom=0;right=0;collapsible=0;dropTarget=0;fillColor=none;points=[[0,0.5],[1,0.5]];portConstraint=eastwest;fontSize=16;strokeWidth=3;" vertex="1" parent="fmfwr3C3cZf3HJOBRyC--215">
          <mxGeometry y="104" width="130" height="26" as="geometry" />
        </mxCell>
        <mxCell id="fmfwr3C3cZf3HJOBRyC--241" style="shape=partialRectangle;html=1;whiteSpace=wrap;connectable=0;strokeColor=#000000;overflow=hidden;fillColor=#99CCFF;top=0;left=0;bottom=0;right=0;pointerEvents=1;fontSize=16;strokeWidth=3;opacity=60;" vertex="1" parent="fmfwr3C3cZf3HJOBRyC--240">
          <mxGeometry width="26" height="26" as="geometry">
            <mxRectangle width="26" height="26" as="alternateBounds" />
          </mxGeometry>
        </mxCell>
        <mxCell id="fmfwr3C3cZf3HJOBRyC--242" style="shape=partialRectangle;html=1;whiteSpace=wrap;connectable=0;strokeColor=#000000;overflow=hidden;fillColor=#99CCFF;top=0;left=0;bottom=0;right=0;pointerEvents=1;fontSize=16;strokeWidth=3;opacity=60;" vertex="1" parent="fmfwr3C3cZf3HJOBRyC--240">
          <mxGeometry x="26" width="26" height="26" as="geometry">
            <mxRectangle width="26" height="26" as="alternateBounds" />
          </mxGeometry>
        </mxCell>
        <mxCell id="fmfwr3C3cZf3HJOBRyC--243" style="shape=partialRectangle;html=1;whiteSpace=wrap;connectable=0;strokeColor=#000000;overflow=hidden;fillColor=#99CCFF;top=0;left=0;bottom=0;right=0;pointerEvents=1;fontSize=16;strokeWidth=3;opacity=60;" vertex="1" parent="fmfwr3C3cZf3HJOBRyC--240">
          <mxGeometry x="52" width="26" height="26" as="geometry">
            <mxRectangle width="26" height="26" as="alternateBounds" />
          </mxGeometry>
        </mxCell>
        <mxCell id="fmfwr3C3cZf3HJOBRyC--244" style="shape=partialRectangle;html=1;whiteSpace=wrap;connectable=0;strokeColor=#000000;overflow=hidden;fillColor=#99CCFF;top=0;left=0;bottom=0;right=0;pointerEvents=1;fontSize=16;strokeWidth=3;opacity=60;" vertex="1" parent="fmfwr3C3cZf3HJOBRyC--240">
          <mxGeometry x="78" width="26" height="26" as="geometry">
            <mxRectangle width="26" height="26" as="alternateBounds" />
          </mxGeometry>
        </mxCell>
        <mxCell id="fmfwr3C3cZf3HJOBRyC--245" style="shape=partialRectangle;html=1;whiteSpace=wrap;connectable=0;strokeColor=#000000;overflow=hidden;fillColor=#99CCFF;top=0;left=0;bottom=0;right=0;pointerEvents=1;fontSize=16;strokeWidth=3;opacity=60;" vertex="1" parent="fmfwr3C3cZf3HJOBRyC--240">
          <mxGeometry x="104" width="26" height="26" as="geometry">
            <mxRectangle width="26" height="26" as="alternateBounds" />
          </mxGeometry>
        </mxCell>
        <mxCell id="fmfwr3C3cZf3HJOBRyC--246" value="&lt;div&gt;&lt;font style=&quot;font-size: 16px;&quot; face=&quot;Courier New&quot;&gt;Causal mask&lt;br&gt;&lt;/font&gt;&lt;/div&gt;" style="text;html=1;strokeColor=none;fillColor=none;align=center;verticalAlign=middle;whiteSpace=wrap;rounded=0;" vertex="1" parent="1">
          <mxGeometry x="140" y="235.5" width="160" height="35" as="geometry" />
        </mxCell>
      </root>
    </mxGraphModel>
  </diagram>
</mxfile>
